<?xml version="1.0" encoding="utf-8" standalone="no"?>
<!DOCTYPE svg PUBLIC "-//W3C//DTD SVG 1.1//EN"
  "http://www.w3.org/Graphics/SVG/1.1/DTD/svg11.dtd">
<!-- Created with matplotlib (https://matplotlib.org/) -->
<svg height="432pt" version="1.1" viewBox="0 0 648 432" width="648pt" xmlns="http://www.w3.org/2000/svg" xmlns:xlink="http://www.w3.org/1999/xlink">
 <metadata>
  <rdf:RDF xmlns:cc="http://creativecommons.org/ns#" xmlns:dc="http://purl.org/dc/elements/1.1/" xmlns:rdf="http://www.w3.org/1999/02/22-rdf-syntax-ns#">
   <cc:Work>
    <dc:type rdf:resource="http://purl.org/dc/dcmitype/StillImage"/>
    <dc:date>2021-01-01T12:02:53.215772</dc:date>
    <dc:format>image/svg+xml</dc:format>
    <dc:creator>
     <cc:Agent>
      <dc:title>Matplotlib v3.3.3, https://matplotlib.org/</dc:title>
     </cc:Agent>
    </dc:creator>
   </cc:Work>
  </rdf:RDF>
 </metadata>
 <defs>
  <style type="text/css">*{stroke-linecap:butt;stroke-linejoin:round;}</style>
 </defs>
 <g id="figure_1">
  <g id="patch_1">
   <path d="M 0 432 
L 648 432 
L 648 0 
L 0 0 
z
" style="fill:#ffffff;"/>
  </g>
  <g id="axes_1">
   <g id="patch_2">
    <path d="M 81 384.48 
L 583.2 384.48 
L 583.2 51.84 
L 81 51.84 
z
" style="fill:#ffffff;"/>
   </g>
   <g id="matplotlib.axis_1">
    <g id="xtick_1">
     <g id="line2d_1">
      <defs>
       <path d="M 0 0 
L 0 3.5 
" id="md30927b6c5" style="stroke:#000000;stroke-width:0.8;"/>
      </defs>
      <g>
       <use style="stroke:#000000;stroke-width:0.8;" x="103.827273" xlink:href="#md30927b6c5" y="384.48"/>
      </g>
     </g>
     <g id="text_1">
      <!-- 0 -->
      <g transform="translate(100.646023 399.078438)scale(0.1 -0.1)">
       <defs>
        <path d="M 31.78125 66.40625 
Q 24.171875 66.40625 20.328125 58.90625 
Q 16.5 51.421875 16.5 36.375 
Q 16.5 21.390625 20.328125 13.890625 
Q 24.171875 6.390625 31.78125 6.390625 
Q 39.453125 6.390625 43.28125 13.890625 
Q 47.125 21.390625 47.125 36.375 
Q 47.125 51.421875 43.28125 58.90625 
Q 39.453125 66.40625 31.78125 66.40625 
z
M 31.78125 74.21875 
Q 44.046875 74.21875 50.515625 64.515625 
Q 56.984375 54.828125 56.984375 36.375 
Q 56.984375 17.96875 50.515625 8.265625 
Q 44.046875 -1.421875 31.78125 -1.421875 
Q 19.53125 -1.421875 13.0625 8.265625 
Q 6.59375 17.96875 6.59375 36.375 
Q 6.59375 54.828125 13.0625 64.515625 
Q 19.53125 74.21875 31.78125 74.21875 
z
" id="DejaVuSans-48"/>
       </defs>
       <use xlink:href="#DejaVuSans-48"/>
      </g>
     </g>
    </g>
    <g id="xtick_2">
     <g id="line2d_2">
      <g>
       <use style="stroke:#000000;stroke-width:0.8;" x="164.708117" xlink:href="#md30927b6c5" y="384.48"/>
      </g>
     </g>
     <g id="text_2">
      <!-- 1000 -->
      <g transform="translate(151.983117 399.078438)scale(0.1 -0.1)">
       <defs>
        <path d="M 12.40625 8.296875 
L 28.515625 8.296875 
L 28.515625 63.921875 
L 10.984375 60.40625 
L 10.984375 69.390625 
L 28.421875 72.90625 
L 38.28125 72.90625 
L 38.28125 8.296875 
L 54.390625 8.296875 
L 54.390625 0 
L 12.40625 0 
z
" id="DejaVuSans-49"/>
       </defs>
       <use xlink:href="#DejaVuSans-49"/>
       <use x="63.623047" xlink:href="#DejaVuSans-48"/>
       <use x="127.246094" xlink:href="#DejaVuSans-48"/>
       <use x="190.869141" xlink:href="#DejaVuSans-48"/>
      </g>
     </g>
    </g>
    <g id="xtick_3">
     <g id="line2d_3">
      <g>
       <use style="stroke:#000000;stroke-width:0.8;" x="225.588962" xlink:href="#md30927b6c5" y="384.48"/>
      </g>
     </g>
     <g id="text_3">
      <!-- 2000 -->
      <g transform="translate(212.863962 399.078438)scale(0.1 -0.1)">
       <defs>
        <path d="M 19.1875 8.296875 
L 53.609375 8.296875 
L 53.609375 0 
L 7.328125 0 
L 7.328125 8.296875 
Q 12.9375 14.109375 22.625 23.890625 
Q 32.328125 33.6875 34.8125 36.53125 
Q 39.546875 41.84375 41.421875 45.53125 
Q 43.3125 49.21875 43.3125 52.78125 
Q 43.3125 58.59375 39.234375 62.25 
Q 35.15625 65.921875 28.609375 65.921875 
Q 23.96875 65.921875 18.8125 64.3125 
Q 13.671875 62.703125 7.8125 59.421875 
L 7.8125 69.390625 
Q 13.765625 71.78125 18.9375 73 
Q 24.125 74.21875 28.421875 74.21875 
Q 39.75 74.21875 46.484375 68.546875 
Q 53.21875 62.890625 53.21875 53.421875 
Q 53.21875 48.921875 51.53125 44.890625 
Q 49.859375 40.875 45.40625 35.40625 
Q 44.1875 33.984375 37.640625 27.21875 
Q 31.109375 20.453125 19.1875 8.296875 
z
" id="DejaVuSans-50"/>
       </defs>
       <use xlink:href="#DejaVuSans-50"/>
       <use x="63.623047" xlink:href="#DejaVuSans-48"/>
       <use x="127.246094" xlink:href="#DejaVuSans-48"/>
       <use x="190.869141" xlink:href="#DejaVuSans-48"/>
      </g>
     </g>
    </g>
    <g id="xtick_4">
     <g id="line2d_4">
      <g>
       <use style="stroke:#000000;stroke-width:0.8;" x="286.469807" xlink:href="#md30927b6c5" y="384.48"/>
      </g>
     </g>
     <g id="text_4">
      <!-- 3000 -->
      <g transform="translate(273.744807 399.078438)scale(0.1 -0.1)">
       <defs>
        <path d="M 40.578125 39.3125 
Q 47.65625 37.796875 51.625 33 
Q 55.609375 28.21875 55.609375 21.1875 
Q 55.609375 10.40625 48.1875 4.484375 
Q 40.765625 -1.421875 27.09375 -1.421875 
Q 22.515625 -1.421875 17.65625 -0.515625 
Q 12.796875 0.390625 7.625 2.203125 
L 7.625 11.71875 
Q 11.71875 9.328125 16.59375 8.109375 
Q 21.484375 6.890625 26.8125 6.890625 
Q 36.078125 6.890625 40.9375 10.546875 
Q 45.796875 14.203125 45.796875 21.1875 
Q 45.796875 27.640625 41.28125 31.265625 
Q 36.765625 34.90625 28.71875 34.90625 
L 20.21875 34.90625 
L 20.21875 43.015625 
L 29.109375 43.015625 
Q 36.375 43.015625 40.234375 45.921875 
Q 44.09375 48.828125 44.09375 54.296875 
Q 44.09375 59.90625 40.109375 62.90625 
Q 36.140625 65.921875 28.71875 65.921875 
Q 24.65625 65.921875 20.015625 65.03125 
Q 15.375 64.15625 9.8125 62.3125 
L 9.8125 71.09375 
Q 15.4375 72.65625 20.34375 73.4375 
Q 25.25 74.21875 29.59375 74.21875 
Q 40.828125 74.21875 47.359375 69.109375 
Q 53.90625 64.015625 53.90625 55.328125 
Q 53.90625 49.265625 50.4375 45.09375 
Q 46.96875 40.921875 40.578125 39.3125 
z
" id="DejaVuSans-51"/>
       </defs>
       <use xlink:href="#DejaVuSans-51"/>
       <use x="63.623047" xlink:href="#DejaVuSans-48"/>
       <use x="127.246094" xlink:href="#DejaVuSans-48"/>
       <use x="190.869141" xlink:href="#DejaVuSans-48"/>
      </g>
     </g>
    </g>
    <g id="xtick_5">
     <g id="line2d_5">
      <g>
       <use style="stroke:#000000;stroke-width:0.8;" x="347.350652" xlink:href="#md30927b6c5" y="384.48"/>
      </g>
     </g>
     <g id="text_5">
      <!-- 4000 -->
      <g transform="translate(334.625652 399.078438)scale(0.1 -0.1)">
       <defs>
        <path d="M 37.796875 64.3125 
L 12.890625 25.390625 
L 37.796875 25.390625 
z
M 35.203125 72.90625 
L 47.609375 72.90625 
L 47.609375 25.390625 
L 58.015625 25.390625 
L 58.015625 17.1875 
L 47.609375 17.1875 
L 47.609375 0 
L 37.796875 0 
L 37.796875 17.1875 
L 4.890625 17.1875 
L 4.890625 26.703125 
z
" id="DejaVuSans-52"/>
       </defs>
       <use xlink:href="#DejaVuSans-52"/>
       <use x="63.623047" xlink:href="#DejaVuSans-48"/>
       <use x="127.246094" xlink:href="#DejaVuSans-48"/>
       <use x="190.869141" xlink:href="#DejaVuSans-48"/>
      </g>
     </g>
    </g>
    <g id="xtick_6">
     <g id="line2d_6">
      <g>
       <use style="stroke:#000000;stroke-width:0.8;" x="408.231496" xlink:href="#md30927b6c5" y="384.48"/>
      </g>
     </g>
     <g id="text_6">
      <!-- 5000 -->
      <g transform="translate(395.506496 399.078438)scale(0.1 -0.1)">
       <defs>
        <path d="M 10.796875 72.90625 
L 49.515625 72.90625 
L 49.515625 64.59375 
L 19.828125 64.59375 
L 19.828125 46.734375 
Q 21.96875 47.46875 24.109375 47.828125 
Q 26.265625 48.1875 28.421875 48.1875 
Q 40.625 48.1875 47.75 41.5 
Q 54.890625 34.8125 54.890625 23.390625 
Q 54.890625 11.625 47.5625 5.09375 
Q 40.234375 -1.421875 26.90625 -1.421875 
Q 22.3125 -1.421875 17.546875 -0.640625 
Q 12.796875 0.140625 7.71875 1.703125 
L 7.71875 11.625 
Q 12.109375 9.234375 16.796875 8.0625 
Q 21.484375 6.890625 26.703125 6.890625 
Q 35.15625 6.890625 40.078125 11.328125 
Q 45.015625 15.765625 45.015625 23.390625 
Q 45.015625 31 40.078125 35.4375 
Q 35.15625 39.890625 26.703125 39.890625 
Q 22.75 39.890625 18.8125 39.015625 
Q 14.890625 38.140625 10.796875 36.28125 
z
" id="DejaVuSans-53"/>
       </defs>
       <use xlink:href="#DejaVuSans-53"/>
       <use x="63.623047" xlink:href="#DejaVuSans-48"/>
       <use x="127.246094" xlink:href="#DejaVuSans-48"/>
       <use x="190.869141" xlink:href="#DejaVuSans-48"/>
      </g>
     </g>
    </g>
    <g id="xtick_7">
     <g id="line2d_7">
      <g>
       <use style="stroke:#000000;stroke-width:0.8;" x="469.112341" xlink:href="#md30927b6c5" y="384.48"/>
      </g>
     </g>
     <g id="text_7">
      <!-- 6000 -->
      <g transform="translate(456.387341 399.078438)scale(0.1 -0.1)">
       <defs>
        <path d="M 33.015625 40.375 
Q 26.375 40.375 22.484375 35.828125 
Q 18.609375 31.296875 18.609375 23.390625 
Q 18.609375 15.53125 22.484375 10.953125 
Q 26.375 6.390625 33.015625 6.390625 
Q 39.65625 6.390625 43.53125 10.953125 
Q 47.40625 15.53125 47.40625 23.390625 
Q 47.40625 31.296875 43.53125 35.828125 
Q 39.65625 40.375 33.015625 40.375 
z
M 52.59375 71.296875 
L 52.59375 62.3125 
Q 48.875 64.0625 45.09375 64.984375 
Q 41.3125 65.921875 37.59375 65.921875 
Q 27.828125 65.921875 22.671875 59.328125 
Q 17.53125 52.734375 16.796875 39.40625 
Q 19.671875 43.65625 24.015625 45.921875 
Q 28.375 48.1875 33.59375 48.1875 
Q 44.578125 48.1875 50.953125 41.515625 
Q 57.328125 34.859375 57.328125 23.390625 
Q 57.328125 12.15625 50.6875 5.359375 
Q 44.046875 -1.421875 33.015625 -1.421875 
Q 20.359375 -1.421875 13.671875 8.265625 
Q 6.984375 17.96875 6.984375 36.375 
Q 6.984375 53.65625 15.1875 63.9375 
Q 23.390625 74.21875 37.203125 74.21875 
Q 40.921875 74.21875 44.703125 73.484375 
Q 48.484375 72.75 52.59375 71.296875 
z
" id="DejaVuSans-54"/>
       </defs>
       <use xlink:href="#DejaVuSans-54"/>
       <use x="63.623047" xlink:href="#DejaVuSans-48"/>
       <use x="127.246094" xlink:href="#DejaVuSans-48"/>
       <use x="190.869141" xlink:href="#DejaVuSans-48"/>
      </g>
     </g>
    </g>
    <g id="xtick_8">
     <g id="line2d_8">
      <g>
       <use style="stroke:#000000;stroke-width:0.8;" x="529.993186" xlink:href="#md30927b6c5" y="384.48"/>
      </g>
     </g>
     <g id="text_8">
      <!-- 7000 -->
      <g transform="translate(517.268186 399.078438)scale(0.1 -0.1)">
       <defs>
        <path d="M 8.203125 72.90625 
L 55.078125 72.90625 
L 55.078125 68.703125 
L 28.609375 0 
L 18.3125 0 
L 43.21875 64.59375 
L 8.203125 64.59375 
z
" id="DejaVuSans-55"/>
       </defs>
       <use xlink:href="#DejaVuSans-55"/>
       <use x="63.623047" xlink:href="#DejaVuSans-48"/>
       <use x="127.246094" xlink:href="#DejaVuSans-48"/>
       <use x="190.869141" xlink:href="#DejaVuSans-48"/>
      </g>
     </g>
    </g>
    <g id="text_9">
     <!-- Iteration -->
     <g transform="translate(310.891406 412.756563)scale(0.1 -0.1)">
      <defs>
       <path d="M 9.8125 72.90625 
L 19.671875 72.90625 
L 19.671875 0 
L 9.8125 0 
z
" id="DejaVuSans-73"/>
       <path d="M 18.3125 70.21875 
L 18.3125 54.6875 
L 36.8125 54.6875 
L 36.8125 47.703125 
L 18.3125 47.703125 
L 18.3125 18.015625 
Q 18.3125 11.328125 20.140625 9.421875 
Q 21.96875 7.515625 27.59375 7.515625 
L 36.8125 7.515625 
L 36.8125 0 
L 27.59375 0 
Q 17.1875 0 13.234375 3.875 
Q 9.28125 7.765625 9.28125 18.015625 
L 9.28125 47.703125 
L 2.6875 47.703125 
L 2.6875 54.6875 
L 9.28125 54.6875 
L 9.28125 70.21875 
z
" id="DejaVuSans-116"/>
       <path d="M 56.203125 29.59375 
L 56.203125 25.203125 
L 14.890625 25.203125 
Q 15.484375 15.921875 20.484375 11.0625 
Q 25.484375 6.203125 34.421875 6.203125 
Q 39.59375 6.203125 44.453125 7.46875 
Q 49.3125 8.734375 54.109375 11.28125 
L 54.109375 2.78125 
Q 49.265625 0.734375 44.1875 -0.34375 
Q 39.109375 -1.421875 33.890625 -1.421875 
Q 20.796875 -1.421875 13.15625 6.1875 
Q 5.515625 13.8125 5.515625 26.8125 
Q 5.515625 40.234375 12.765625 48.109375 
Q 20.015625 56 32.328125 56 
Q 43.359375 56 49.78125 48.890625 
Q 56.203125 41.796875 56.203125 29.59375 
z
M 47.21875 32.234375 
Q 47.125 39.59375 43.09375 43.984375 
Q 39.0625 48.390625 32.421875 48.390625 
Q 24.90625 48.390625 20.390625 44.140625 
Q 15.875 39.890625 15.1875 32.171875 
z
" id="DejaVuSans-101"/>
       <path d="M 41.109375 46.296875 
Q 39.59375 47.171875 37.8125 47.578125 
Q 36.03125 48 33.890625 48 
Q 26.265625 48 22.1875 43.046875 
Q 18.109375 38.09375 18.109375 28.8125 
L 18.109375 0 
L 9.078125 0 
L 9.078125 54.6875 
L 18.109375 54.6875 
L 18.109375 46.1875 
Q 20.953125 51.171875 25.484375 53.578125 
Q 30.03125 56 36.53125 56 
Q 37.453125 56 38.578125 55.875 
Q 39.703125 55.765625 41.0625 55.515625 
z
" id="DejaVuSans-114"/>
       <path d="M 34.28125 27.484375 
Q 23.390625 27.484375 19.1875 25 
Q 14.984375 22.515625 14.984375 16.5 
Q 14.984375 11.71875 18.140625 8.90625 
Q 21.296875 6.109375 26.703125 6.109375 
Q 34.1875 6.109375 38.703125 11.40625 
Q 43.21875 16.703125 43.21875 25.484375 
L 43.21875 27.484375 
z
M 52.203125 31.203125 
L 52.203125 0 
L 43.21875 0 
L 43.21875 8.296875 
Q 40.140625 3.328125 35.546875 0.953125 
Q 30.953125 -1.421875 24.3125 -1.421875 
Q 15.921875 -1.421875 10.953125 3.296875 
Q 6 8.015625 6 15.921875 
Q 6 25.140625 12.171875 29.828125 
Q 18.359375 34.515625 30.609375 34.515625 
L 43.21875 34.515625 
L 43.21875 35.40625 
Q 43.21875 41.609375 39.140625 45 
Q 35.0625 48.390625 27.6875 48.390625 
Q 23 48.390625 18.546875 47.265625 
Q 14.109375 46.140625 10.015625 43.890625 
L 10.015625 52.203125 
Q 14.9375 54.109375 19.578125 55.046875 
Q 24.21875 56 28.609375 56 
Q 40.484375 56 46.34375 49.84375 
Q 52.203125 43.703125 52.203125 31.203125 
z
" id="DejaVuSans-97"/>
       <path d="M 9.421875 54.6875 
L 18.40625 54.6875 
L 18.40625 0 
L 9.421875 0 
z
M 9.421875 75.984375 
L 18.40625 75.984375 
L 18.40625 64.59375 
L 9.421875 64.59375 
z
" id="DejaVuSans-105"/>
       <path d="M 30.609375 48.390625 
Q 23.390625 48.390625 19.1875 42.75 
Q 14.984375 37.109375 14.984375 27.296875 
Q 14.984375 17.484375 19.15625 11.84375 
Q 23.34375 6.203125 30.609375 6.203125 
Q 37.796875 6.203125 41.984375 11.859375 
Q 46.1875 17.53125 46.1875 27.296875 
Q 46.1875 37.015625 41.984375 42.703125 
Q 37.796875 48.390625 30.609375 48.390625 
z
M 30.609375 56 
Q 42.328125 56 49.015625 48.375 
Q 55.71875 40.765625 55.71875 27.296875 
Q 55.71875 13.875 49.015625 6.21875 
Q 42.328125 -1.421875 30.609375 -1.421875 
Q 18.84375 -1.421875 12.171875 6.21875 
Q 5.515625 13.875 5.515625 27.296875 
Q 5.515625 40.765625 12.171875 48.375 
Q 18.84375 56 30.609375 56 
z
" id="DejaVuSans-111"/>
       <path d="M 54.890625 33.015625 
L 54.890625 0 
L 45.90625 0 
L 45.90625 32.71875 
Q 45.90625 40.484375 42.875 44.328125 
Q 39.84375 48.1875 33.796875 48.1875 
Q 26.515625 48.1875 22.3125 43.546875 
Q 18.109375 38.921875 18.109375 30.90625 
L 18.109375 0 
L 9.078125 0 
L 9.078125 54.6875 
L 18.109375 54.6875 
L 18.109375 46.1875 
Q 21.34375 51.125 25.703125 53.5625 
Q 30.078125 56 35.796875 56 
Q 45.21875 56 50.046875 50.171875 
Q 54.890625 44.34375 54.890625 33.015625 
z
" id="DejaVuSans-110"/>
      </defs>
      <use xlink:href="#DejaVuSans-73"/>
      <use x="29.492188" xlink:href="#DejaVuSans-116"/>
      <use x="68.701172" xlink:href="#DejaVuSans-101"/>
      <use x="130.224609" xlink:href="#DejaVuSans-114"/>
      <use x="171.337891" xlink:href="#DejaVuSans-97"/>
      <use x="232.617188" xlink:href="#DejaVuSans-116"/>
      <use x="271.826172" xlink:href="#DejaVuSans-105"/>
      <use x="299.609375" xlink:href="#DejaVuSans-111"/>
      <use x="360.791016" xlink:href="#DejaVuSans-110"/>
     </g>
    </g>
   </g>
   <g id="matplotlib.axis_2">
    <g id="ytick_1">
     <g id="line2d_9">
      <defs>
       <path d="M 0 0 
L -3.5 0 
" id="m958c2279c0" style="stroke:#000000;stroke-width:0.8;"/>
      </defs>
      <g>
       <use style="stroke:#000000;stroke-width:0.8;" x="81" xlink:href="#m958c2279c0" y="333.636864"/>
      </g>
     </g>
     <g id="text_10">
      <!-- $\mathdefault{10^{-6}}$ -->
      <g transform="translate(50.5 337.436083)scale(0.1 -0.1)">
       <defs>
        <path d="M 10.59375 35.5 
L 73.1875 35.5 
L 73.1875 27.203125 
L 10.59375 27.203125 
z
" id="DejaVuSans-8722"/>
       </defs>
       <use transform="translate(0 0.765625)" xlink:href="#DejaVuSans-49"/>
       <use transform="translate(63.623047 0.765625)" xlink:href="#DejaVuSans-48"/>
       <use transform="translate(128.203125 39.046875)scale(0.7)" xlink:href="#DejaVuSans-8722"/>
       <use transform="translate(186.855469 39.046875)scale(0.7)" xlink:href="#DejaVuSans-54"/>
      </g>
     </g>
    </g>
    <g id="ytick_2">
     <g id="line2d_10">
      <g>
       <use style="stroke:#000000;stroke-width:0.8;" x="81" xlink:href="#m958c2279c0" y="281.381247"/>
      </g>
     </g>
     <g id="text_11">
      <!-- $\mathdefault{10^{-3}}$ -->
      <g transform="translate(50.5 285.180465)scale(0.1 -0.1)">
       <use transform="translate(0 0.765625)" xlink:href="#DejaVuSans-49"/>
       <use transform="translate(63.623047 0.765625)" xlink:href="#DejaVuSans-48"/>
       <use transform="translate(128.203125 39.046875)scale(0.7)" xlink:href="#DejaVuSans-8722"/>
       <use transform="translate(186.855469 39.046875)scale(0.7)" xlink:href="#DejaVuSans-51"/>
      </g>
     </g>
    </g>
    <g id="ytick_3">
     <g id="line2d_11">
      <g>
       <use style="stroke:#000000;stroke-width:0.8;" x="81" xlink:href="#m958c2279c0" y="229.125629"/>
      </g>
     </g>
     <g id="text_12">
      <!-- $\mathdefault{10^{0}}$ -->
      <g transform="translate(56.4 232.924848)scale(0.1 -0.1)">
       <use transform="translate(0 0.765625)" xlink:href="#DejaVuSans-49"/>
       <use transform="translate(63.623047 0.765625)" xlink:href="#DejaVuSans-48"/>
       <use transform="translate(128.203125 39.046875)scale(0.7)" xlink:href="#DejaVuSans-48"/>
      </g>
     </g>
    </g>
    <g id="ytick_4">
     <g id="line2d_12">
      <g>
       <use style="stroke:#000000;stroke-width:0.8;" x="81" xlink:href="#m958c2279c0" y="176.870011"/>
      </g>
     </g>
     <g id="text_13">
      <!-- $\mathdefault{10^{3}}$ -->
      <g transform="translate(56.4 180.66923)scale(0.1 -0.1)">
       <use transform="translate(0 0.765625)" xlink:href="#DejaVuSans-49"/>
       <use transform="translate(63.623047 0.765625)" xlink:href="#DejaVuSans-48"/>
       <use transform="translate(128.203125 39.046875)scale(0.7)" xlink:href="#DejaVuSans-51"/>
      </g>
     </g>
    </g>
    <g id="ytick_5">
     <g id="line2d_13">
      <g>
       <use style="stroke:#000000;stroke-width:0.8;" x="81" xlink:href="#m958c2279c0" y="124.614393"/>
      </g>
     </g>
     <g id="text_14">
      <!-- $\mathdefault{10^{6}}$ -->
      <g transform="translate(56.4 128.413612)scale(0.1 -0.1)">
       <use transform="translate(0 0.765625)" xlink:href="#DejaVuSans-49"/>
       <use transform="translate(63.623047 0.765625)" xlink:href="#DejaVuSans-48"/>
       <use transform="translate(128.203125 39.046875)scale(0.7)" xlink:href="#DejaVuSans-54"/>
      </g>
     </g>
    </g>
    <g id="ytick_6">
     <g id="line2d_14">
      <g>
       <use style="stroke:#000000;stroke-width:0.8;" x="81" xlink:href="#m958c2279c0" y="72.358776"/>
      </g>
     </g>
     <g id="text_15">
      <!-- $\mathdefault{10^{9}}$ -->
      <g transform="translate(56.4 76.157994)scale(0.1 -0.1)">
       <defs>
        <path d="M 10.984375 1.515625 
L 10.984375 10.5 
Q 14.703125 8.734375 18.5 7.8125 
Q 22.3125 6.890625 25.984375 6.890625 
Q 35.75 6.890625 40.890625 13.453125 
Q 46.046875 20.015625 46.78125 33.40625 
Q 43.953125 29.203125 39.59375 26.953125 
Q 35.25 24.703125 29.984375 24.703125 
Q 19.046875 24.703125 12.671875 31.3125 
Q 6.296875 37.9375 6.296875 49.421875 
Q 6.296875 60.640625 12.9375 67.421875 
Q 19.578125 74.21875 30.609375 74.21875 
Q 43.265625 74.21875 49.921875 64.515625 
Q 56.59375 54.828125 56.59375 36.375 
Q 56.59375 19.140625 48.40625 8.859375 
Q 40.234375 -1.421875 26.421875 -1.421875 
Q 22.703125 -1.421875 18.890625 -0.6875 
Q 15.09375 0.046875 10.984375 1.515625 
z
M 30.609375 32.421875 
Q 37.25 32.421875 41.125 36.953125 
Q 45.015625 41.5 45.015625 49.421875 
Q 45.015625 57.28125 41.125 61.84375 
Q 37.25 66.40625 30.609375 66.40625 
Q 23.96875 66.40625 20.09375 61.84375 
Q 16.21875 57.28125 16.21875 49.421875 
Q 16.21875 41.5 20.09375 36.953125 
Q 23.96875 32.421875 30.609375 32.421875 
z
" id="DejaVuSans-57"/>
       </defs>
       <use transform="translate(0 0.765625)" xlink:href="#DejaVuSans-49"/>
       <use transform="translate(63.623047 0.765625)" xlink:href="#DejaVuSans-48"/>
       <use transform="translate(128.203125 39.046875)scale(0.7)" xlink:href="#DejaVuSans-57"/>
      </g>
     </g>
    </g>
    <g id="text_16">
     <!-- $(f(x^k)-f^*)/f^*$ -->
     <g transform="translate(44.420312 251.66)rotate(-90)scale(0.1 -0.1)">
      <defs>
       <path d="M 31 75.875 
Q 24.46875 64.65625 21.28125 53.65625 
Q 18.109375 42.671875 18.109375 31.390625 
Q 18.109375 20.125 21.3125 9.0625 
Q 24.515625 -2 31 -13.1875 
L 23.1875 -13.1875 
Q 15.875 -1.703125 12.234375 9.375 
Q 8.59375 20.453125 8.59375 31.390625 
Q 8.59375 42.28125 12.203125 53.3125 
Q 15.828125 64.359375 23.1875 75.875 
z
" id="DejaVuSans-40"/>
       <path d="M 47.796875 75.984375 
L 46.390625 68.5 
L 37.796875 68.5 
Q 32.90625 68.5 30.6875 66.578125 
Q 28.46875 64.65625 27.390625 59.515625 
L 26.421875 54.6875 
L 41.21875 54.6875 
L 39.890625 47.703125 
L 25.09375 47.703125 
L 15.828125 0 
L 6.78125 0 
L 16.109375 47.703125 
L 7.515625 47.703125 
L 8.796875 54.6875 
L 17.390625 54.6875 
L 18.109375 58.5 
Q 19.96875 68.171875 24.625 72.078125 
Q 29.296875 75.984375 39.3125 75.984375 
z
" id="DejaVuSans-Oblique-102"/>
       <path d="M 60.015625 54.6875 
L 34.90625 27.875 
L 50.296875 0 
L 39.984375 0 
L 28.421875 21.6875 
L 8.296875 0 
L -2.59375 0 
L 24.3125 28.8125 
L 10.015625 54.6875 
L 20.3125 54.6875 
L 30.8125 34.90625 
L 49.125 54.6875 
z
" id="DejaVuSans-Oblique-120"/>
       <path d="M 18.3125 75.984375 
L 27.296875 75.984375 
L 18.703125 31.6875 
L 49.515625 54.6875 
L 61.1875 54.6875 
L 26.8125 28.515625 
L 51.90625 0 
L 41.015625 0 
L 17.671875 26.703125 
L 12.5 0 
L 3.515625 0 
z
" id="DejaVuSans-Oblique-107"/>
       <path d="M 8.015625 75.875 
L 15.828125 75.875 
Q 23.140625 64.359375 26.78125 53.3125 
Q 30.421875 42.28125 30.421875 31.390625 
Q 30.421875 20.453125 26.78125 9.375 
Q 23.140625 -1.703125 15.828125 -13.1875 
L 8.015625 -13.1875 
Q 14.5 -2 17.703125 9.0625 
Q 20.90625 20.125 20.90625 31.390625 
Q 20.90625 42.671875 17.703125 53.65625 
Q 14.5 64.65625 8.015625 75.875 
z
" id="DejaVuSans-41"/>
       <path d="M 47.015625 60.890625 
L 29.5 51.421875 
L 47.015625 41.890625 
L 44.1875 37.109375 
L 27.78125 47.015625 
L 27.78125 28.609375 
L 22.21875 28.609375 
L 22.21875 47.015625 
L 5.8125 37.109375 
L 2.984375 41.890625 
L 20.515625 51.421875 
L 2.984375 60.890625 
L 5.8125 65.71875 
L 22.21875 55.8125 
L 22.21875 74.21875 
L 27.78125 74.21875 
L 27.78125 55.8125 
L 44.1875 65.71875 
z
" id="DejaVuSans-42"/>
       <path d="M 25.390625 72.90625 
L 33.6875 72.90625 
L 8.296875 -9.28125 
L 0 -9.28125 
z
" id="DejaVuSans-47"/>
      </defs>
      <use transform="translate(0 0.529687)" xlink:href="#DejaVuSans-40"/>
      <use transform="translate(39.013672 0.529687)" xlink:href="#DejaVuSans-Oblique-102"/>
      <use transform="translate(74.21875 0.529687)" xlink:href="#DejaVuSans-40"/>
      <use transform="translate(113.232422 0.529687)" xlink:href="#DejaVuSans-Oblique-120"/>
      <use transform="translate(176.878255 38.810937)scale(0.7)" xlink:href="#DejaVuSans-Oblique-107"/>
      <use transform="translate(220.14974 0.529687)" xlink:href="#DejaVuSans-41"/>
      <use transform="translate(278.645833 0.529687)" xlink:href="#DejaVuSans-8722"/>
      <use transform="translate(381.917318 0.529687)" xlink:href="#DejaVuSans-Oblique-102"/>
      <use transform="translate(438.207799 38.810937)scale(0.7)" xlink:href="#DejaVuSans-42"/>
      <use transform="translate(489.57987 0.529687)" xlink:href="#DejaVuSans-41"/>
      <use transform="translate(528.593542 0.529687)" xlink:href="#DejaVuSans-47"/>
      <use transform="translate(562.284948 0.529687)" xlink:href="#DejaVuSans-Oblique-102"/>
      <use transform="translate(618.57543 38.810937)scale(0.7)" xlink:href="#DejaVuSans-42"/>
     </g>
    </g>
   </g>
   <g id="line2d_15">
    <path clip-path="url(#p3c5e940d02)" d="M 103.827273 135.58852 
L 104.009915 157.870064 
L 104.314319 169.05659 
L 104.679605 174.785777 
L 105.04489 177.197389 
L 105.410175 178.234934 
L 105.836341 178.756841 
L 106.384268 179.034769 
L 107.419243 179.245783 
L 112.654995 179.87689 
L 128.362253 181.875898 
L 143.886869 184.071929 
L 173.596721 188.392681 
L 186.564341 190.051439 
L 198.618748 191.391578 
L 213.412793 192.73491 
L 226.86746 193.645275 
L 231.616166 193.89887 
L 231.737927 211.574895 
L 231.981451 211.745352 
L 232.772902 211.840222 
L 236.486633 211.913861 
L 263.943894 212.101479 
L 359.46594 212.504149 
L 359.587701 285.495258 
L 360.074748 301.629557 
L 360.866199 319.095929 
L 361.779412 339.705405 
L 362.022935 349.891807 
L 362.144697 369.339384 
L 362.144921 433 
L 362.144921 433 
" style="fill:none;stroke:#008000;stroke-linecap:square;stroke-width:2;"/>
   </g>
   <g id="line2d_16">
    <path clip-path="url(#p3c5e940d02)" d="M 103.827273 135.621846 
L 104.070796 161.800652 
L 104.496962 176.74219 
L 105.10577 189.803516 
L 105.836341 201.177778 
L 106.445149 207.813894 
L 106.932196 211.136982 
L 107.419243 213.015377 
L 107.906289 213.984489 
L 108.393336 214.478996 
L 109.063025 214.814508 
L 110.219761 215.090243 
L 113.263804 215.513627 
L 126.231424 217.149271 
L 136.824691 218.578862 
L 159.959412 221.697031 
L 163.42962 222.109848 
L 176.762525 223.621506 
L 188.390766 224.714414 
L 192.043617 225.091267 
L 203.915381 225.838495 
L 210.246989 226.312676 
L 211.281964 226.403794 
L 215.726265 226.762636 
L 225.649843 228.102807 
L 226.86746 228.439958 
L 230.155026 229.305708 
L 232.894664 230.17189 
L 233.686115 230.451149 
L 238.191297 232.321366 
L 240.443888 233.756564 
L 241.783267 234.88198 
L 242.513837 235.650874 
L 244.035858 237.824786 
L 245.557879 240.939442 
L 246.288449 242.695978 
L 247.384305 244.795752 
L 247.993113 245.450687 
L 248.541041 245.757143 
L 249.332492 245.904971 
L 251.219798 245.958134 
L 256.029385 245.961114 
L 256.272908 255.220842 
L 256.759955 264.295983 
L 257.612286 275.90748 
L 258.038452 279.778812 
L 258.403737 281.385193 
L 258.769023 282.147297 
L 259.195188 282.55233 
L 259.743116 282.761068 
L 260.77809 282.86681 
L 264.552703 282.889841 
L 408.231496 282.889906 
L 408.779424 301.629631 
L 409.570875 319.096057 
L 410.484088 339.705931 
L 410.727611 349.893495 
L 410.849373 369.36 
L 410.849597 433 
L 410.849597 433 
" style="fill:none;stroke:#0000ff;stroke-linecap:square;stroke-width:2;"/>
   </g>
   <g id="line2d_17">
    <path clip-path="url(#p3c5e940d02)" d="M 103.827273 135.621846 
L 104.070796 164.238082 
L 104.679605 202.357522 
L 104.923128 206.856987 
L 105.166651 209.187981 
L 105.592817 213.840035 
L 105.897221 214.693956 
L 106.627792 216.1204 
L 107.2366 217.228343 
L 107.906289 218.442732 
L 108.575979 220.075789 
L 109.854476 222.929887 
L 110.158881 223.411326 
L 111.011212 224.870327 
L 111.254736 225.077041 
L 112.837638 227.796035 
L 113.081161 227.71258 
L 113.872612 229.621863 
L 113.994374 229.587369 
L 114.298778 229.7078 
L 114.481421 229.907917 
L 114.542301 229.967662 
L 114.603182 229.878371 
L 115.029348 229.145088 
L 115.272872 229.151601 
L 115.759918 229.462924 
L 115.942561 229.363105 
L 116.186084 229.083421 
L 116.246965 229.075583 
L 116.429608 229.457672 
L 116.61225 229.07027 
L 116.855773 229.576228 
L 117.038416 230.085518 
L 117.34282 229.739394 
L 117.464582 230.016465 
L 117.829867 231.307063 
L 117.951629 231.417206 
L 118.195152 231.196746 
L 118.682199 231.989509 
L 118.925722 233.555369 
L 119.108365 235.022511 
L 119.351888 234.951589 
L 119.47365 235.125455 
L 119.656292 234.437389 
L 120.143339 231.506825 
L 120.265101 231.452156 
L 120.630386 231.670678 
L 120.813028 231.586967 
L 120.93479 231.782442 
L 120.995671 231.704819 
L 121.117433 231.522365 
L 121.543599 230.190853 
L 121.726241 230.164966 
L 122.030645 230.70213 
L 122.456811 230.559172 
L 122.761215 230.899525 
L 123.187381 231.590041 
L 123.430905 231.880064 
L 123.674428 232.503612 
L 124.222356 233.993547 
L 125.013807 236.20905 
L 125.379092 237.223028 
L 125.683496 237.448998 
L 125.805258 237.337041 
L 127.144636 234.108109 
L 127.44904 234.039075 
L 127.753445 234.358738 
L 128.301372 235.406795 
L 128.971062 236.644595 
L 129.336347 236.955712 
L 129.701632 236.979733 
L 130.127798 236.728641 
L 131.101891 235.746265 
L 131.954223 235.067604 
L 132.745674 234.727575 
L 133.780648 234.553825 
L 134.876504 234.583349 
L 136.03324 234.836032 
L 139.503448 235.807787 
L 140.903707 236.208472 
L 141.999562 236.782862 
L 143.886869 238.109107 
L 145.530651 239.136234 
L 146.87003 239.724143 
L 147.965885 239.976101 
L 148.939979 239.966347 
L 150.035834 239.70727 
L 152.958114 238.869191 
L 154.175731 238.84283 
L 155.697752 239.05422 
L 157.950344 239.612197 
L 160.629101 240.267512 
L 161.968479 240.347477 
L 163.551381 240.200256 
L 167.75216 239.462162 
L 169.761228 239.26446 
L 171.34413 239.328733 
L 172.744389 239.58041 
L 173.048793 239.626856 
L 173.353197 239.387834 
L 173.779363 238.686522 
L 175.72755 234.96762 
L 176.275478 234.541456 
L 176.762525 234.437455 
L 177.249571 234.560707 
L 177.85838 234.964346 
L 179.075997 236.140738 
L 179.928329 236.80389 
L 180.598018 237.069104 
L 181.389469 237.130717 
L 182.789728 237.032462 
L 182.850609 236.950128 
L 182.91149 237.00204 
L 184.129107 237.908316 
L 184.859677 238.16407 
L 185.712009 238.203893 
L 187.173149 238.240311 
L 188.025481 238.503486 
L 189.42574 239.229623 
L 190.582476 239.71874 
L 191.495689 239.866362 
L 192.591544 239.810899 
L 194.235327 239.486609 
L 195.14854 239.228116 
L 195.331182 255.208002 
L 195.696467 264.397073 
L 196.427038 273.072414 
L 196.792323 276.222546 
L 197.096727 277.447403 
L 197.401131 277.943011 
L 197.827297 278.131215 
L 198.253463 278.046804 
L 199.288437 277.488172 
L 200.445173 276.976765 
L 201.480148 276.780984 
L 202.880407 276.786156 
L 208.785849 276.98653 
L 215.726265 276.926377 
L 215.908908 290.923051 
L 216.700359 321.283308 
L 216.76124 332.39285 
L 216.761593 433 
L 216.761593 433 
" style="fill:none;stroke:#bfbf00;stroke-linecap:square;stroke-width:2;"/>
   </g>
   <g id="line2d_18">
    <path clip-path="url(#p3c5e940d02)" d="M 103.827273 135.621846 
L 104.070796 163.086822 
L 104.436081 178.563175 
L 105.04489 194.484364 
L 105.653698 205.401998 
L 106.140745 210.710123 
L 106.871315 213.755113 
L 107.175719 214.204489 
L 107.358362 214.334249 
L 107.419243 214.496933 
L 107.480123 214.3392 
L 107.662766 214.601295 
L 107.96717 214.599559 
L 108.149813 214.833191 
L 108.210694 214.634732 
L 108.393336 214.861967 
L 108.575979 214.774162 
L 108.758621 214.986372 
L 108.819502 214.774389 
L 109.002145 214.993985 
L 109.184787 215.004607 
L 109.245668 215.048125 
L 109.306549 214.923333 
L 109.489191 215.13485 
L 109.550072 214.919453 
L 109.732715 215.138428 
L 109.915357 215.033959 
L 110.098 215.245366 
L 110.158881 215.02494 
L 110.219761 215.22181 
L 110.402404 215.223406 
L 110.585046 215.292857 
L 110.645927 215.159783 
L 110.82857 215.373216 
L 110.889451 215.145295 
L 111.072093 215.37263 
L 111.254736 215.367997 
L 111.437378 215.434921 
L 111.620021 215.433339 
L 111.863544 215.479033 
L 111.924425 215.524534 
L 111.985306 215.389009 
L 112.167948 215.603014 
L 112.228829 215.364026 
L 112.28971 215.572785 
L 112.472353 215.565727 
L 112.654995 215.637343 
L 112.837638 215.63836 
L 113.02028 215.714819 
L 113.081161 215.580358 
L 113.263804 215.802877 
L 113.324685 215.583429 
L 113.507327 215.828263 
L 113.568208 215.713785 
L 113.629089 215.871121 
L 113.68997 215.651234 
L 113.872612 215.896919 
L 113.933493 215.659628 
L 114.116135 215.908758 
L 114.177016 215.786889 
L 114.237897 215.966557 
L 114.298778 215.741555 
L 114.481421 216.021848 
L 114.542301 215.815343 
L 114.724944 216.078239 
L 114.785825 215.739125 
L 114.846706 216.002091 
L 115.029348 216.035383 
L 115.090229 216.092677 
L 115.15111 215.968221 
L 115.211991 216.150576 
L 115.272872 215.927377 
L 115.455514 216.199176 
L 115.516395 215.987204 
L 115.699037 216.252798 
L 115.759918 216.054722 
L 115.820799 216.248041 
L 115.88168 216.139572 
L 116.064323 216.249853 
L 116.125203 216.132712 
L 116.186084 216.319156 
L 116.246965 216.103712 
L 116.429608 216.378711 
L 116.490488 216.184332 
L 116.551369 216.377038 
L 116.61225 216.151416 
L 116.794893 216.43905 
L 116.855773 216.237111 
L 116.916654 216.437094 
L 116.977535 216.342198 
L 117.160178 216.455615 
L 117.221059 216.339265 
L 117.281939 216.522988 
L 117.34282 216.322254 
L 117.403701 216.52541 
L 117.464582 216.431097 
L 117.647224 216.553558 
L 117.708105 216.450656 
L 117.768986 216.622936 
L 117.829867 216.434932 
L 117.890748 216.625852 
L 117.951629 216.413236 
L 118.134271 216.69359 
L 118.195152 216.369841 
L 118.256033 216.627641 
L 118.621318 216.763714 
L 118.682199 216.552886 
L 118.74308 216.767078 
L 118.803961 216.675117 
L 118.986603 216.791009 
L 119.047484 216.67897 
L 119.108365 216.861049 
L 119.169246 216.658983 
L 119.230126 216.862399 
L 119.291007 216.769659 
L 119.47365 216.889029 
L 119.534531 216.784316 
L 119.595412 216.960744 
L 119.656292 216.764365 
L 119.717173 216.961695 
L 119.778054 216.873245 
L 119.960697 216.986921 
L 120.021577 216.886239 
L 120.082458 217.056683 
L 120.143339 216.870796 
L 120.20422 217.060864 
L 120.265101 216.851423 
L 120.447743 217.130481 
L 120.508624 216.804727 
L 120.569505 217.058613 
L 120.813028 217.188679 
L 120.873909 217.002287 
L 120.93479 217.190796 
L 120.995671 216.979909 
L 121.178313 217.260753 
L 121.239194 217.076062 
L 121.300075 217.26224 
L 121.360956 217.056549 
L 121.421837 217.264699 
L 121.482718 217.175016 
L 121.66536 217.308482 
L 121.726241 217.225375 
L 121.787122 217.2846 
L 121.969764 217.383962 
L 122.030645 217.212067 
L 122.091526 217.469972 
L 122.152407 217.066374 
L 122.213288 217.424408 
L 122.274169 217.364649 
L 122.517692 217.521791 
L 122.578573 217.326143 
L 122.639454 217.529317 
L 122.700335 217.308566 
L 122.761215 217.53617 
L 122.822096 217.444361 
L 123.004739 217.585503 
L 123.06562 217.485812 
L 123.126501 217.560393 
L 123.309143 217.527772 
L 123.370024 217.7105 
L 123.430905 217.374731 
L 123.491786 217.648207 
L 123.674428 217.600076 
L 123.735309 217.785814 
L 123.79619 217.578432 
L 123.857071 217.789157 
L 123.917951 217.556415 
L 123.978832 217.791251 
L 124.039713 217.677429 
L 124.222356 217.81671 
L 124.283237 217.686212 
L 124.344117 217.892979 
L 124.404998 217.664968 
L 124.465879 217.8972 
L 124.52676 217.789784 
L 124.648522 217.868792 
L 124.709402 217.826459 
L 124.770283 217.939313 
L 124.831164 217.897995 
L 125.013807 217.823985 
L 125.074688 218.037757 
L 125.135568 217.805917 
L 125.196449 218.040414 
L 125.25733 217.924735 
L 125.379092 218.00274 
L 125.439973 217.962092 
L 125.500853 218.071197 
L 125.561734 217.906403 
L 125.622615 218.151362 
L 125.683496 217.893154 
L 125.744377 218.157916 
L 125.805258 217.876387 
L 125.9879 218.236882 
L 126.048781 217.838167 
L 126.109662 218.171018 
L 126.170543 218.137114 
L 126.231424 218.233604 
L 126.292304 218.083933 
L 126.353185 218.308507 
L 126.414066 217.912548 
L 126.474947 218.244284 
L 126.596709 218.189252 
L 126.71847 218.266481 
L 126.779351 218.225823 
L 126.840232 218.336067 
L 126.901113 218.172 
L 126.961994 218.417135 
L 127.022875 218.160049 
L 127.083755 218.425035 
L 127.144636 218.145162 
L 127.205517 218.430808 
L 127.266398 218.284377 
L 127.44904 218.473814 
L 127.509921 218.326018 
L 127.570802 218.554324 
L 127.631683 218.163288 
L 127.692564 218.495397 
L 127.753445 218.465323 
L 127.936087 218.407593 
L 127.996968 218.625399 
L 128.057849 218.404385 
L 128.11873 218.638342 
L 128.179611 218.403751 
L 128.240491 218.65182 
L 128.301372 218.404273 
L 128.362253 218.665431 
L 128.423134 218.552285 
L 128.544896 218.640893 
L 128.605777 218.607314 
L 128.666657 218.720365 
L 128.727538 218.56958 
L 128.788419 218.696976 
L 128.910181 218.655551 
L 128.971062 218.74739 
L 129.031942 218.614247 
L 129.092823 218.838202 
L 129.153704 218.464985 
L 129.275466 218.787767 
L 129.336347 218.746503 
L 129.397228 218.866258 
L 129.458108 218.712624 
L 129.518989 218.848755 
L 129.640751 218.817856 
L 129.701632 218.911936 
L 129.762513 218.795991 
L 129.823393 218.901075 
L 130.31044 218.924692 
L 130.371321 219.05676 
L 130.432202 218.902926 
L 130.493083 219.050484 
L 130.614844 219.023784 
L 130.797487 219.113583 
L 130.858368 219.005407 
L 130.919249 219.11933 
L 131.284534 219.225062 
L 131.467176 219.109723 
L 131.528057 219.345785 
L 131.588938 219.011559 
L 131.649819 219.317125 
L 131.7107 219.217127 
L 131.893342 219.337344 
L 131.954223 219.225475 
L 132.136866 219.341425 
L 132.563031 219.490121 
L 132.623912 219.339574 
L 132.745674 219.479164 
L 133.963291 219.821122 
L 134.024172 219.525229 
L 134.206814 219.866183 
L 134.267695 219.571708 
L 134.450338 219.930521 
L 134.511218 219.624011 
L 134.693861 219.973741 
L 134.754742 219.651989 
L 134.937384 220.015926 
L 134.998265 219.834581 
L 135.059146 220.063854 
L 135.120027 219.758091 
L 135.302669 220.0992 
L 135.36355 219.790118 
L 135.546193 220.149105 
L 135.607074 219.813252 
L 135.667955 220.134815 
L 135.728835 220.049174 
L 135.911478 220.181083 
L 135.972359 219.956213 
L 136.155001 220.284931 
L 136.215882 219.987369 
L 136.398525 220.327678 
L 136.459405 220.016896 
L 136.642048 220.365018 
L 136.702929 220.034499 
L 136.885571 220.404276 
L 136.946452 220.216571 
L 137.007333 220.451737 
L 137.068214 220.160768 
L 137.250856 220.490481 
L 137.311737 220.180545 
L 137.49438 220.53173 
L 137.555261 220.2208 
L 137.737903 220.580008 
L 137.798784 220.272025 
L 137.981427 220.629893 
L 138.042307 220.347329 
L 138.103188 220.627706 
L 138.164069 220.437298 
L 138.346712 220.598051 
L 138.407593 220.511878 
L 138.590235 220.66156 
L 138.651116 220.600427 
L 138.711997 220.699104 
L 138.772878 220.517752 
L 138.833758 220.764002 
L 138.894639 220.479276 
L 139.077282 220.818602 
L 139.138163 220.544292 
L 139.320805 220.867235 
L 139.381686 220.593655 
L 139.564329 220.911196 
L 139.625209 220.638881 
L 139.68609 220.906728 
L 139.746971 220.592323 
L 139.929614 220.962242 
L 139.990494 220.673229 
L 140.173137 221.016882 
L 140.234018 220.750364 
L 140.294899 221.019348 
L 140.35578 220.714984 
L 140.538422 221.087011 
L 140.599303 220.814532 
L 140.660184 221.091028 
L 140.721065 220.783642 
L 140.903707 221.159055 
L 140.964588 220.890074 
L 141.025469 221.164003 
L 141.08635 220.861806 
L 141.268992 221.232063 
L 141.329873 220.965878 
L 141.390754 221.237901 
L 141.451635 220.95808 
L 141.512516 221.248379 
L 141.573396 220.950177 
L 141.634277 221.254355 
L 141.695158 221.09423 
L 141.877801 221.260867 
L 141.938682 221.079206 
L 141.999562 221.328764 
L 142.060443 221.05693 
L 142.121324 221.336268 
L 142.182205 221.040083 
L 142.243086 221.343532 
L 142.303967 221.0352 
L 142.364847 221.358672 
L 142.425728 221.195272 
L 142.486609 221.330903 
L 142.54749 221.268193 
L 142.791013 221.268039 
L 142.851894 221.398403 
L 142.912775 221.217516 
L 142.973656 221.47904 
L 143.034537 221.236033 
L 143.095418 221.492799 
L 143.156298 221.258564 
L 143.217179 221.514836 
L 143.27806 221.289619 
L 143.338941 221.438554 
L 143.460703 221.396087 
L 143.521583 221.4457 
L 143.582464 221.344402 
L 143.643345 221.519929 
L 143.704226 221.3076 
L 143.765107 221.604151 
L 143.825988 221.340013 
L 143.886869 221.631335 
L 143.947749 221.37433 
L 144.00863 221.653504 
L 144.069511 221.400148 
L 144.130392 221.586481 
L 144.191273 221.50628 
L 144.252154 221.553136 
L 144.434796 221.667083 
L 144.495677 221.492607 
L 144.556558 221.761374 
L 144.617439 221.538617 
L 144.67832 221.701355 
L 144.7392 221.641145 
L 144.982724 221.789196 
L 145.043605 221.602228 
L 145.104485 221.881593 
L 145.165366 221.652851 
L 145.226247 221.82292 
L 145.287128 221.749533 
L 145.469771 221.771926 
L 145.713294 221.943854 
L 145.774175 221.754912 
L 145.835056 221.945468 
L 145.895936 221.869672 
L 146.13946 222.038522 
L 146.200341 221.88849 
L 146.261221 222.051954 
L 146.322102 221.883441 
L 146.382983 222.055316 
L 146.443864 222.000959 
L 146.687387 222.158438 
L 146.748268 221.842883 
L 146.809149 222.199167 
L 146.87003 221.908884 
L 146.930911 222.238672 
L 146.991792 221.969503 
L 147.052672 222.275189 
L 147.113553 222.028689 
L 147.174434 222.307518 
L 147.235315 222.071095 
L 147.296196 222.245044 
L 147.357077 222.041959 
L 147.417958 222.340748 
L 147.478838 222.091927 
L 147.539719 222.376935 
L 147.6006 222.12684 
L 147.661481 222.32016 
L 147.722362 222.234475 
L 147.783243 222.295025 
L 147.965885 222.389604 
L 148.148528 222.230282 
L 148.209409 222.482898 
L 148.270289 222.311962 
L 148.452932 222.444188 
L 148.513813 222.309755 
L 148.696455 222.471976 
L 148.879098 222.440169 
L 149.06174 222.580139 
L 149.122621 222.477166 
L 149.305264 222.609463 
L 149.366145 222.47934 
L 149.487906 222.605226 
L 149.914072 222.668413 
L 150.096715 222.742041 
L 150.462 222.89833 
L 150.522881 222.586464 
L 150.583761 222.938626 
L 150.644642 222.661608 
L 150.705523 222.973519 
L 150.766404 222.738942 
L 150.827285 222.932605 
L 150.888166 222.738722 
L 150.949047 222.945426 
L 151.009927 222.744798 
L 151.070808 222.959938 
L 151.131689 222.74824 
L 151.19257 223.05245 
L 151.253451 222.823586 
L 151.314332 223.009289 
L 151.375212 222.81722 
L 151.436093 223.017603 
L 151.496974 222.824105 
L 151.557855 223.11131 
L 151.618736 222.895797 
L 151.679617 223.076177 
L 151.740498 222.894794 
L 151.801378 223.090064 
L 151.862259 222.900184 
L 151.92314 223.098165 
L 151.984021 222.906051 
L 152.044902 223.111312 
L 152.105783 223.025979 
L 152.288425 223.180305 
L 152.349306 222.882679 
L 152.410187 223.22451 
L 152.471068 222.971637 
L 152.531949 223.265131 
L 152.592829 223.04218 
L 152.65371 223.222632 
L 152.714591 223.03821 
L 152.775472 223.23087 
L 152.836353 223.038645 
L 152.897234 223.231896 
L 152.958114 223.042832 
L 153.018995 223.244563 
L 153.079876 223.063491 
L 153.262519 223.282187 
L 153.323399 223.101333 
L 153.38428 223.29198 
L 153.445161 223.093653 
L 153.506042 223.368504 
L 153.566923 223.151097 
L 153.627804 223.326779 
L 153.688685 223.151074 
L 153.749565 223.331907 
L 153.810446 223.15608 
L 153.871327 223.342546 
L 153.932208 223.165234 
L 153.993089 223.351632 
L 154.05397 223.172789 
L 154.11485 223.35959 
L 154.175731 223.179807 
L 154.236612 223.367772 
L 154.297493 223.18846 
L 154.358374 223.449168 
L 154.419255 223.268523 
L 154.601897 223.463123 
L 154.662778 223.317955 
L 154.845421 223.515487 
L 154.906301 223.259201 
L 154.967182 223.565921 
L 155.028063 223.369073 
L 155.210706 223.566968 
L 155.271587 223.411368 
L 155.454229 223.600961 
L 155.51511 223.339896 
L 155.575991 223.65132 
L 155.636872 223.459155 
L 155.819514 223.646021 
L 155.880395 223.399084 
L 155.941276 223.693346 
L 156.002157 223.518654 
L 156.184799 223.705942 
L 156.24568 223.500283 
L 156.306561 223.759544 
L 156.367442 223.647048 
L 156.550084 223.724849 
L 156.610965 223.617983 
L 156.671846 223.766797 
L 156.732727 223.584357 
L 156.793608 223.827056 
L 156.854488 223.725714 
L 156.915369 223.753477 
L 156.97625 223.650084 
L 157.037131 223.798757 
L 157.098012 223.61367 
L 157.158893 223.861367 
L 157.219774 223.775562 
L 157.645939 223.836962 
L 157.70682 223.774122 
L 157.889463 223.914057 
L 157.950344 223.785633 
L 158.132986 224.006075 
L 158.37651 223.863823 
L 158.559152 224.038814 
L 158.620033 223.900728 
L 158.680914 224.024088 
L 158.802676 224.010459 
L 159.046199 224.067431 
L 159.10708 224.00614 
L 159.167961 224.121984 
L 159.228841 223.989421 
L 159.289722 224.113833 
L 159.411484 224.108409 
L 159.594126 224.127974 
L 159.655007 224.089269 
L 159.83765 224.209243 
L 160.020292 224.147038 
L 160.202935 224.239741 
L 160.385577 224.176373 
L 160.56822 224.27832 
L 160.750863 224.247664 
L 160.933505 224.33363 
L 161.116148 224.308054 
L 161.29879 224.398998 
L 161.481433 224.377978 
L 161.907599 224.410243 
L 163.003454 224.679796 
L 163.064335 224.634236 
L 163.186096 224.747536 
L 163.246977 224.679908 
L 163.307858 224.778726 
L 163.368739 224.731815 
L 164.281952 224.988146 
L 164.342832 224.820296 
L 164.403713 225.004485 
L 164.464594 224.830457 
L 164.647237 225.029921 
L 164.708117 224.851698 
L 164.768998 225.039383 
L 164.829879 224.856493 
L 164.89076 225.043554 
L 164.951641 224.953971 
L 165.012522 225.036282 
L 165.073403 224.929451 
L 165.256045 225.090569 
L 165.316926 224.945846 
L 165.377807 225.101277 
L 165.438688 224.948204 
L 165.62133 225.125957 
L 165.682211 224.981053 
L 165.743092 225.143466 
L 165.803973 225.086073 
L 165.986615 225.147068 
L 168.969777 225.415128 
L 169.2133 225.437034 
L 170.248274 225.522495 
L 170.491798 225.515778 
L 170.613559 225.55487 
L 170.917964 225.544784 
L 171.526772 225.611792 
L 172.439985 225.796457 
L 172.500866 225.702509 
L 172.561746 225.801905 
L 172.744389 225.745122 
L 172.927031 225.873803 
L 172.987912 225.769805 
L 173.048793 225.837804 
L 173.231436 225.789705 
L 173.414078 225.902032 
L 173.474959 225.792542 
L 173.53584 225.905559 
L 173.596721 225.822827 
L 173.657602 225.911136 
L 173.718482 225.861917 
L 173.779363 225.964642 
L 173.840244 225.852812 
L 174.022887 225.995454 
L 174.083768 225.87221 
L 174.144648 225.964346 
L 174.205529 225.907235 
L 174.26641 226.011078 
L 174.327291 225.891491 
L 174.388172 225.987469 
L 174.449053 225.922821 
L 174.509933 226.033735 
L 174.570814 225.880335 
L 174.631695 226.02083 
L 174.692576 225.914107 
L 174.753457 226.063114 
L 174.814338 225.896255 
L 174.875219 226.073933 
L 174.936099 225.941769 
L 175.118742 226.080128 
L 175.179623 226.035953 
L 175.240504 226.137211 
L 175.301384 225.980144 
L 175.362265 226.106254 
L 175.544908 226.021447 
L 175.72755 226.126056 
L 175.788431 226.093925 
L 175.849312 226.20578 
L 175.910193 226.073675 
L 176.092835 226.219852 
L 176.153716 226.145669 
L 176.336359 226.291985 
L 176.39724 226.212493 
L 176.45812 226.315175 
L 176.519001 226.24845 
L 176.701644 226.381317 
L 176.762525 226.315675 
L 176.945167 226.518629 
L 177.006048 226.351061 
L 177.066929 226.529933 
L 177.12781 226.394753 
L 177.310452 226.570917 
L 177.371333 226.453369 
L 177.432214 226.594567 
L 177.493095 226.425697 
L 177.675737 226.649952 
L 177.736618 226.527503 
L 177.797499 226.690547 
L 177.85838 226.501309 
L 178.041022 226.753095 
L 178.101903 226.600183 
L 178.162784 226.790181 
L 178.223665 226.634895 
L 178.406308 226.839669 
L 178.467188 226.706349 
L 178.528069 226.87223 
L 178.58895 226.683772 
L 178.649831 226.884408 
L 178.710712 226.689196 
L 178.893354 226.933684 
L 178.954235 226.792577 
L 179.136878 226.978463 
L 179.197758 226.811699 
L 179.258639 226.997092 
L 179.31952 226.843743 
L 179.502163 227.053376 
L 179.563044 226.891999 
L 179.623924 227.064753 
L 179.684805 226.881261 
L 179.867448 227.15967 
L 179.928329 226.956163 
L 179.989209 227.199924 
L 180.05009 227.032253 
L 180.232733 227.240747 
L 180.293614 227.120563 
L 180.354495 227.296339 
L 180.415375 227.132068 
L 180.598018 227.366876 
L 180.658899 227.196704 
L 180.841541 227.438909 
L 180.902422 227.220164 
L 180.963303 227.454408 
L 181.024184 227.281598 
L 181.206826 227.476806 
L 181.267707 227.344227 
L 181.328588 227.470862 
L 181.389469 227.391279 
L 181.572111 227.506495 
L 181.632992 227.451999 
L 181.693873 227.561133 
L 181.754754 227.421293 
L 181.937397 227.62607 
L 181.998277 227.533144 
L 182.18092 227.714209 
L 182.241801 227.637888 
L 182.424443 227.822381 
L 182.485324 227.721287 
L 182.667967 227.910971 
L 182.728847 227.815545 
L 182.91149 228.001592 
L 182.972371 227.938736 
L 183.155013 228.072686 
L 183.215894 227.988533 
L 183.398537 228.153437 
L 183.459418 228.075007 
L 183.64206 228.25316 
L 183.702941 228.167071 
L 183.763822 228.273081 
L 183.824703 228.222768 
L 184.007345 228.366795 
L 184.068226 228.308971 
L 184.250869 228.477889 
L 184.311749 228.400056 
L 184.494392 228.57589 
L 184.555273 228.511282 
L 184.737915 228.686766 
L 184.798796 228.585424 
L 184.981439 228.792655 
L 185.04232 228.690773 
L 185.224962 228.881973 
L 185.285843 228.803482 
L 185.468485 229.025478 
L 185.529366 228.920283 
L 185.712009 229.188624 
L 185.77289 229.088413 
L 185.955532 229.356162 
L 186.016413 229.243013 
L 186.199056 229.517417 
L 186.259936 229.43369 
L 186.442579 229.679734 
L 186.50346 229.594585 
L 186.686102 229.842812 
L 186.746983 229.775425 
L 186.929626 230.004402 
L 186.990507 229.947714 
L 187.173149 230.128479 
L 187.355792 230.204826 
L 187.538434 230.339562 
L 187.721077 230.396878 
L 188.147243 230.77099 
L 188.999574 231.438898 
L 189.851906 232.388307 
L 190.338953 233.028625 
L 191.678332 235.943525 
L 192.956829 240.105436 
L 193.322114 240.545161 
L 193.74828 240.829206 
L 194.539731 240.88553 
L 199.714603 240.888627 
L 199.897246 254.386918 
L 200.506054 271.627864 
L 200.810458 275.44992 
L 201.114863 276.511179 
L 201.419267 276.819212 
L 201.906314 276.941201 
L 203.489216 276.968956 
L 206.350615 276.969115 
L 206.7159 313.54879 
L 206.71632 433 
L 206.71632 433 
" style="fill:none;stroke:#ff0000;stroke-linecap:square;stroke-width:2;"/>
   </g>
   <g id="line2d_19">
    <path clip-path="url(#p3c5e940d02)" d="M 103.827273 135.621846 
L 104.070796 164.236469 
L 104.679605 202.34736 
L 104.923128 206.855105 
L 105.166651 209.184337 
L 105.592817 213.838572 
L 105.897221 214.696353 
L 106.627792 216.120998 
L 107.2366 217.229357 
L 107.906289 218.439812 
L 108.454217 219.760287 
L 109.671834 222.61775 
L 110.82857 224.682098 
L 111.437378 225.457563 
L 112.654995 227.717549 
L 112.837638 227.810707 
L 113.142042 227.77056 
L 113.507327 228.573515 
L 114.055255 229.564715 
L 114.42054 229.665727 
L 114.603182 229.756996 
L 114.785825 229.229663 
L 114.968467 228.943281 
L 115.029348 228.955165 
L 115.211991 229.240993 
L 115.455514 229.287383 
L 115.820799 229.469491 
L 115.942561 229.367419 
L 116.246965 228.750268 
L 116.429608 229.039814 
L 116.61225 228.743502 
L 116.734012 229.152415 
L 116.916654 230.093552 
L 116.977535 230.065022 
L 117.281939 229.640741 
L 117.34282 229.669825 
L 117.890748 231.144264 
L 118.07339 230.931922 
L 118.195152 231.28158 
L 118.621318 233.754459 
L 119.047484 237.848953 
L 119.108365 237.842875 
L 119.412769 236.719121 
L 119.656292 236.312297 
L 119.838935 236.530674 
L 119.960697 237.128659 
L 120.20422 239.747465 
L 120.447743 241.782365 
L 120.569505 241.879711 
L 120.691267 241.44864 
L 121.056552 239.800454 
L 121.239194 239.736003 
L 121.543599 240.300162 
L 121.969764 240.59335 
L 122.152407 240.801592 
L 122.33505 240.737279 
L 122.700335 240.369371 
L 123.06562 240.462778 
L 123.370024 240.466423 
L 123.613547 240.610764 
L 124.100594 240.551267 
L 124.404998 240.583164 
L 125.013807 240.389439 
L 125.561734 240.64497 
L 125.805258 240.698606 
L 126.535828 240.37231 
L 127.205517 240.640065 
L 127.38816 240.631373 
L 127.570802 240.52146 
L 127.814326 240.418343 
L 128.179611 240.426827 
L 128.605777 240.715357 
L 128.788419 240.629875 
L 129.092823 240.420405 
L 129.518989 240.447085 
L 129.884274 240.51572 
L 130.066917 240.644001 
L 130.432202 240.506404 
L 130.980129 240.525158 
L 131.406295 240.421546 
L 131.832461 240.501246 
L 132.136866 240.723657 
L 132.806555 240.382409 
L 132.928317 240.452881 
L 133.110959 240.586477 
L 133.658887 240.628122 
L 133.780648 240.643102 
L 134.145933 240.314893 
L 134.450338 240.478397 
L 134.572099 240.548934 
L 134.754742 240.670802 
L 135.059146 240.598848 
L 135.241789 240.581822 
L 135.546193 240.412919 
L 135.850597 240.379237 
L 136.398525 240.731939 
L 136.824691 240.439183 
L 137.068214 240.512397 
L 137.311737 240.449274 
L 137.616142 240.577335 
L 137.798784 240.605989 
L 138.103188 240.51516 
L 138.651116 240.523154 
L 139.077282 240.41957 
L 139.503448 240.500516 
L 139.807852 240.726102 
L 140.477541 240.379549 
L 140.599303 240.450908 
L 140.781945 240.586502 
L 141.329873 240.628656 
L 141.451635 240.642847 
L 141.81692 240.31212 
L 142.121324 240.477756 
L 142.851894 240.646128 
L 143.338941 240.371763 
L 143.521583 240.376463 
L 144.00863 240.696989 
L 144.252154 240.504535 
L 144.434796 240.427735 
L 145.104485 240.534999 
L 147.296196 240.50638 
L 147.6006 240.700007 
L 148.33117 240.410424 
L 148.513813 240.554812 
L 148.757336 240.541346 
L 149.244383 240.610162 
L 149.548787 240.313056 
L 150.340238 240.610191 
L 150.522881 240.58442 
L 150.705523 240.539734 
L 151.19257 240.387764 
L 151.375212 240.451203 
L 151.862259 240.728417 
L 152.288425 240.456906 
L 152.531949 240.461756 
L 152.714591 240.438367 
L 153.323399 240.560173 
L 153.566923 240.494316 
L 154.175731 240.520464 
L 154.541016 240.377657 
L 155.028063 240.533492 
L 155.332467 240.716759 
L 155.575991 240.539246 
L 155.941276 240.327591 
L 156.123918 240.452284 
L 156.306561 240.506212 
L 156.489203 240.537404 
L 156.97625 240.681592 
L 157.463297 240.34953 
L 157.950344 240.556745 
L 158.254748 240.639282 
L 158.43739 240.626484 
L 158.741795 240.39739 
L 158.985318 240.448648 
L 159.715888 240.550505 
L 159.898531 240.453609 
L 161.055267 240.495643 
L 161.237909 240.401442 
L 161.785837 240.618387 
L 162.212003 240.469645 
L 162.516407 240.425002 
L 162.75993 240.467992 
L 163.186096 240.578206 
L 163.42962 240.457185 
L 163.794905 240.474221 
L 164.342832 240.649393 
L 164.829879 240.445097 
L 165.073403 240.305393 
L 165.62133 240.615697 
L 165.803973 240.729835 
L 166.047496 240.652238 
L 166.595424 240.375067 
L 166.960709 240.532928 
L 167.265113 240.610306 
L 167.447755 240.545219 
L 167.813041 240.536466 
L 167.995683 240.46557 
L 168.178326 240.407072 
L 168.787134 240.498225 
L 168.969777 240.406663 
L 169.517704 240.644407 
L 170.004751 240.429085 
L 170.248274 240.41837 
L 170.552679 240.512351 
L 170.857083 240.67229 
L 171.222368 240.429981 
L 171.648534 240.530235 
L 172.013819 240.673207 
L 172.500866 240.535562 
L 172.80527 240.294381 
L 173.048793 240.35904 
L 173.170555 240.368903 
L 173.474959 240.740512 
L 173.657602 240.752366 
L 174.327291 240.393036 
L 174.631695 240.4882 
L 175.240504 240.492779 
L 175.544908 240.518289 
L 175.666669 240.557917 
L 175.910193 240.428348 
L 176.153716 240.521171 
L 176.39724 240.589832 
L 176.762525 240.455286 
L 177.006048 240.614652 
L 177.188691 240.695842 
L 177.919261 240.390228 
L 178.223665 240.530283 
L 178.649831 240.579593 
L 178.954235 240.465174 
L 179.31952 240.472275 
L 179.623924 240.557581 
L 180.110971 240.649952 
L 180.293614 240.485889 
L 180.537137 240.288995 
L 181.328588 240.581026 
L 181.572111 240.639949 
L 182.120039 240.301105 
L 182.424443 240.552495 
L 182.607086 240.749088 
L 183.581179 240.438968 
L 184.129107 240.649566 
L 184.311749 240.559017 
L 184.555273 240.444132 
L 185.1032 240.470459 
L 185.407605 240.46644 
L 185.590247 240.573517 
L 185.955532 240.463967 
L 186.381698 240.664977 
L 186.868745 240.384781 
L 187.173149 240.533724 
L 187.477553 240.593802 
L 187.9646 240.578121 
L 188.451647 240.352484 
L 188.634289 240.483448 
L 189.060455 240.716505 
L 189.36486 240.502539 
L 189.486621 240.519302 
L 189.791025 240.337776 
L 190.278072 240.668071 
L 190.521596 240.690766 
L 191.495689 240.356792 
L 191.800093 240.550321 
L 192.043617 240.769265 
L 192.530663 240.467812 
L 192.713306 240.518446 
L 193.200353 240.451 
L 193.443876 240.547827 
L 193.74828 240.48295 
L 194.113565 240.683865 
L 195.026778 240.429244 
L 195.14854 240.466869 
L 195.574706 259.433762 
L 196.061752 282.639655 
L 196.122633 281.768144 
L 196.427038 276.718342 
L 196.60968 276.162201 
L 196.731442 276.308109 
L 197.157608 277.025962 
L 197.462012 277.060904 
L 199.105795 276.969648 
L 200.323412 276.969787 
L 203.550096 276.96894 
L 203.854501 295.383217 
L 203.976262 310.524261 
L 203.976692 433 
L 203.976692 433 
" style="fill:none;stroke:#000000;stroke-linecap:square;stroke-width:2;"/>
   </g>
   <g id="line2d_20">
    <path clip-path="url(#p3c5e940d02)" d="M 103.827273 142.903175 
L 103.888154 150.183968 
L 103.949034 157.46466 
L 104.009915 164.744501 
L 104.070796 172.024931 
L 104.131677 179.30302 
L 104.192558 186.582763 
L 104.253439 193.856342 
L 104.314319 201.134286 
L 104.3752 208.396129 
L 104.436081 215.669396 
L 104.496962 222.900778 
L 104.557843 230.162026 
L 104.618724 237.315426 
L 104.679605 244.546648 
L 104.740485 251.507053 
L 104.801366 258.668806 
L 104.862247 265.190203 
L 104.923128 272.219366 
L 104.984009 277.908488 
L 105.04489 284.797264 
L 105.10577 289.350402 
L 105.166651 296.442191 
L 105.227532 300.0498 
L 105.288413 308.75196 
L 105.349294 311.874263 
L 105.410175 332.208647 
L 105.471056 332.44731 
L 105.471409 433 
" style="fill:none;stroke:#ffdab9;stroke-linecap:square;stroke-width:2;"/>
   </g>
   <g id="line2d_21">
    <path clip-path="url(#p3c5e940d02)" d="M 103.827273 142.231262 
L 103.888154 148.104551 
L 103.949034 155.652397 
L 104.009915 161.985215 
L 104.070796 168.999547 
L 104.131677 175.091346 
L 104.192558 179.608548 
L 104.253439 184.574556 
L 104.314319 191.100111 
L 104.3752 192.651597 
L 104.436081 198.752901 
L 104.496962 203.694349 
L 104.557843 204.438931 
L 104.618724 206.716872 
L 104.679605 209.61097 
L 104.740485 212.893701 
L 104.801366 214.201736 
L 104.862247 214.692601 
L 104.923128 215.452029 
L 104.984009 222.409057 
L 105.04489 225.77443 
L 105.10577 225.357248 
L 105.166651 228.327942 
L 105.227532 232.358209 
L 105.288413 234.001221 
L 105.349294 235.023771 
L 105.410175 236.904039 
L 105.471056 238.747644 
L 105.531936 240.080493 
L 105.592817 241.42879 
L 105.653698 242.976756 
L 105.714579 244.449408 
L 105.77546 245.734893 
L 105.836341 246.96308 
L 105.897221 248.216586 
L 105.958102 249.455037 
L 106.018983 250.642456 
L 106.079864 251.799533 
L 106.140745 252.943579 
L 106.201626 254.06242 
L 106.262507 255.152519 
L 106.323387 256.231674 
L 106.384268 257.311865 
L 106.445149 258.386868 
L 106.50603 259.446726 
L 106.566911 260.489233 
L 106.627792 261.516968 
L 106.688672 262.53191 
L 106.749553 263.535636 
L 106.810434 264.531393 
L 106.871315 265.523357 
L 106.932196 266.513786 
L 106.993077 267.501721 
L 107.053957 268.484624 
L 107.114838 269.460747 
L 107.175719 270.429885 
L 107.2366 271.39284 
L 107.297481 272.351042 
L 107.358362 273.306413 
L 107.419243 274.26072 
L 107.480123 275.21468 
L 107.541004 276.167814 
L 107.601885 277.119169 
L 107.662766 278.068111 
L 107.723647 279.01459 
L 107.784528 279.959043 
L 107.845408 280.902234 
L 107.906289 281.84503 
L 107.96717 282.788092 
L 108.028051 283.731671 
L 108.088932 284.675651 
" style="fill:none;stroke:#bf00bf;stroke-linecap:square;stroke-width:2;"/>
   </g>
   <g id="line2d_22">
    <path clip-path="url(#p3c5e940d02)" d="M 103.827273 66.96 
L 103.888154 74.678326 
L 103.949034 82.68996 
L 104.009915 91.220133 
L 104.070796 100.739128 
L 104.131677 112.28972 
L 104.192558 129.145539 
L 104.253439 159.556042 
L 104.314319 168.741978 
L 104.3752 173.169203 
L 104.436081 178.523783 
L 104.496962 182.741258 
L 104.557843 186.629292 
L 104.618724 191.670587 
L 104.679605 198.777771 
L 104.740485 201.021222 
L 104.801366 203.225697 
L 104.862247 209.220157 
L 104.923128 214.897246 
L 104.984009 215.955449 
L 105.04489 218.700583 
L 105.10577 224.274648 
L 105.166651 228.543287 
L 105.227532 230.28524 
L 105.288413 233.332652 
L 105.349294 237.498934 
L 105.410175 240.315404 
L 105.471056 242.392357 
L 105.531936 245.38979 
L 105.592817 248.61913 
L 105.653698 250.92382 
L 105.714579 252.775524 
L 105.77546 254.876314 
L 105.836341 257.042272 
L 105.897221 258.933935 
L 105.958102 260.726731 
L 106.018983 262.683373 
L 106.079864 264.65497 
L 106.140745 266.375712 
L 106.201626 267.909105 
L 106.262507 269.459331 
L 106.323387 271.06458 
L 106.384268 272.683644 
L 106.445149 274.325931 
L 106.50603 275.99054 
L 106.566911 277.62259 
L 106.627792 279.188621 
L 106.688672 280.71737 
L 106.749553 282.250172 
L 106.810434 283.804412 
L 106.871315 285.381638 
L 106.932196 286.973533 
L 106.993077 288.560923 
L 107.053957 290.127146 
L 107.114838 291.673632 
L 107.175719 293.216154 
L 107.2366 294.769568 
L 107.297481 296.338704 
L 107.358362 297.91768 
L 107.419243 299.493473 
L 107.480123 301.052664 
L 107.541004 302.588467 
L 107.601885 304.102716 
" style="fill:none;stroke:#00bfbf;stroke-linecap:square;stroke-width:2;"/>
   </g>
   <g id="patch_3">
    <path d="M 81 384.48 
L 81 51.84 
" style="fill:none;stroke:#000000;stroke-linecap:square;stroke-linejoin:miter;stroke-width:0.8;"/>
   </g>
   <g id="patch_4">
    <path d="M 583.2 384.48 
L 583.2 51.84 
" style="fill:none;stroke:#000000;stroke-linecap:square;stroke-linejoin:miter;stroke-width:0.8;"/>
   </g>
   <g id="patch_5">
    <path d="M 81 384.48 
L 583.2 384.48 
" style="fill:none;stroke:#000000;stroke-linecap:square;stroke-linejoin:miter;stroke-width:0.8;"/>
   </g>
   <g id="patch_6">
    <path d="M 81 51.84 
L 583.2 51.84 
" style="fill:none;stroke:#000000;stroke-linecap:square;stroke-linejoin:miter;stroke-width:0.8;"/>
   </g>
   <g id="legend_1">
    <g id="patch_7">
     <path d="M 443.71875 202.35 
L 574.8 202.35 
Q 577.2 202.35 577.2 199.95 
L 577.2 60.24 
Q 577.2 57.84 574.8 57.84 
L 443.71875 57.84 
Q 441.31875 57.84 441.31875 60.24 
L 441.31875 199.95 
Q 441.31875 202.35 443.71875 202.35 
z
" style="fill:#ffffff;opacity:0.8;stroke:#cccccc;stroke-linejoin:miter;"/>
    </g>
    <g id="line2d_23">
     <path d="M 446.11875 67.558125 
L 470.11875 67.558125 
" style="fill:none;stroke:#008000;stroke-linecap:square;stroke-width:2;"/>
    </g>
    <g id="line2d_24"/>
    <g id="text_17">
     <!-- SGD Primal -->
     <g transform="translate(479.71875 71.758125)scale(0.12 -0.12)">
      <defs>
       <path d="M 53.515625 70.515625 
L 53.515625 60.890625 
Q 47.90625 63.578125 42.921875 64.890625 
Q 37.9375 66.21875 33.296875 66.21875 
Q 25.25 66.21875 20.875 63.09375 
Q 16.5 59.96875 16.5 54.203125 
Q 16.5 49.359375 19.40625 46.890625 
Q 22.3125 44.4375 30.421875 42.921875 
L 36.375 41.703125 
Q 47.40625 39.59375 52.65625 34.296875 
Q 57.90625 29 57.90625 20.125 
Q 57.90625 9.515625 50.796875 4.046875 
Q 43.703125 -1.421875 29.984375 -1.421875 
Q 24.8125 -1.421875 18.96875 -0.25 
Q 13.140625 0.921875 6.890625 3.21875 
L 6.890625 13.375 
Q 12.890625 10.015625 18.65625 8.296875 
Q 24.421875 6.59375 29.984375 6.59375 
Q 38.421875 6.59375 43.015625 9.90625 
Q 47.609375 13.234375 47.609375 19.390625 
Q 47.609375 24.75 44.3125 27.78125 
Q 41.015625 30.8125 33.5 32.328125 
L 27.484375 33.5 
Q 16.453125 35.6875 11.515625 40.375 
Q 6.59375 45.0625 6.59375 53.421875 
Q 6.59375 63.09375 13.40625 68.65625 
Q 20.21875 74.21875 32.171875 74.21875 
Q 37.3125 74.21875 42.625 73.28125 
Q 47.953125 72.359375 53.515625 70.515625 
z
" id="DejaVuSans-83"/>
       <path d="M 59.515625 10.40625 
L 59.515625 29.984375 
L 43.40625 29.984375 
L 43.40625 38.09375 
L 69.28125 38.09375 
L 69.28125 6.78125 
Q 63.578125 2.734375 56.6875 0.65625 
Q 49.8125 -1.421875 42 -1.421875 
Q 24.90625 -1.421875 15.25 8.5625 
Q 5.609375 18.5625 5.609375 36.375 
Q 5.609375 54.25 15.25 64.234375 
Q 24.90625 74.21875 42 74.21875 
Q 49.125 74.21875 55.546875 72.453125 
Q 61.96875 70.703125 67.390625 67.28125 
L 67.390625 56.78125 
Q 61.921875 61.421875 55.765625 63.765625 
Q 49.609375 66.109375 42.828125 66.109375 
Q 29.4375 66.109375 22.71875 58.640625 
Q 16.015625 51.171875 16.015625 36.375 
Q 16.015625 21.625 22.71875 14.15625 
Q 29.4375 6.6875 42.828125 6.6875 
Q 48.046875 6.6875 52.140625 7.59375 
Q 56.25 8.5 59.515625 10.40625 
z
" id="DejaVuSans-71"/>
       <path d="M 19.671875 64.796875 
L 19.671875 8.109375 
L 31.59375 8.109375 
Q 46.6875 8.109375 53.6875 14.9375 
Q 60.6875 21.78125 60.6875 36.53125 
Q 60.6875 51.171875 53.6875 57.984375 
Q 46.6875 64.796875 31.59375 64.796875 
z
M 9.8125 72.90625 
L 30.078125 72.90625 
Q 51.265625 72.90625 61.171875 64.09375 
Q 71.09375 55.28125 71.09375 36.53125 
Q 71.09375 17.671875 61.125 8.828125 
Q 51.171875 0 30.078125 0 
L 9.8125 0 
z
" id="DejaVuSans-68"/>
       <path id="DejaVuSans-32"/>
       <path d="M 19.671875 64.796875 
L 19.671875 37.40625 
L 32.078125 37.40625 
Q 38.96875 37.40625 42.71875 40.96875 
Q 46.484375 44.53125 46.484375 51.125 
Q 46.484375 57.671875 42.71875 61.234375 
Q 38.96875 64.796875 32.078125 64.796875 
z
M 9.8125 72.90625 
L 32.078125 72.90625 
Q 44.34375 72.90625 50.609375 67.359375 
Q 56.890625 61.8125 56.890625 51.125 
Q 56.890625 40.328125 50.609375 34.8125 
Q 44.34375 29.296875 32.078125 29.296875 
L 19.671875 29.296875 
L 19.671875 0 
L 9.8125 0 
z
" id="DejaVuSans-80"/>
       <path d="M 52 44.1875 
Q 55.375 50.25 60.0625 53.125 
Q 64.75 56 71.09375 56 
Q 79.640625 56 84.28125 50.015625 
Q 88.921875 44.046875 88.921875 33.015625 
L 88.921875 0 
L 79.890625 0 
L 79.890625 32.71875 
Q 79.890625 40.578125 77.09375 44.375 
Q 74.3125 48.1875 68.609375 48.1875 
Q 61.625 48.1875 57.5625 43.546875 
Q 53.515625 38.921875 53.515625 30.90625 
L 53.515625 0 
L 44.484375 0 
L 44.484375 32.71875 
Q 44.484375 40.625 41.703125 44.40625 
Q 38.921875 48.1875 33.109375 48.1875 
Q 26.21875 48.1875 22.15625 43.53125 
Q 18.109375 38.875 18.109375 30.90625 
L 18.109375 0 
L 9.078125 0 
L 9.078125 54.6875 
L 18.109375 54.6875 
L 18.109375 46.1875 
Q 21.1875 51.21875 25.484375 53.609375 
Q 29.78125 56 35.6875 56 
Q 41.65625 56 45.828125 52.96875 
Q 50 49.953125 52 44.1875 
z
" id="DejaVuSans-109"/>
       <path d="M 9.421875 75.984375 
L 18.40625 75.984375 
L 18.40625 0 
L 9.421875 0 
z
" id="DejaVuSans-108"/>
      </defs>
      <use xlink:href="#DejaVuSans-83"/>
      <use x="63.476562" xlink:href="#DejaVuSans-71"/>
      <use x="140.966797" xlink:href="#DejaVuSans-68"/>
      <use x="217.96875" xlink:href="#DejaVuSans-32"/>
      <use x="249.755859" xlink:href="#DejaVuSans-80"/>
      <use x="308.308594" xlink:href="#DejaVuSans-114"/>
      <use x="349.421875" xlink:href="#DejaVuSans-105"/>
      <use x="377.205078" xlink:href="#DejaVuSans-109"/>
      <use x="474.617188" xlink:href="#DejaVuSans-97"/>
      <use x="535.896484" xlink:href="#DejaVuSans-108"/>
     </g>
    </g>
    <g id="line2d_25">
     <path d="M 446.11875 85.171875 
L 470.11875 85.171875 
" style="fill:none;stroke:#0000ff;stroke-linecap:square;stroke-width:2;"/>
    </g>
    <g id="line2d_26"/>
    <g id="text_18">
     <!-- GD Primal -->
     <g transform="translate(479.71875 89.371875)scale(0.12 -0.12)">
      <use xlink:href="#DejaVuSans-71"/>
      <use x="77.490234" xlink:href="#DejaVuSans-68"/>
      <use x="154.492188" xlink:href="#DejaVuSans-32"/>
      <use x="186.279297" xlink:href="#DejaVuSans-80"/>
      <use x="244.832031" xlink:href="#DejaVuSans-114"/>
      <use x="285.945312" xlink:href="#DejaVuSans-105"/>
      <use x="313.728516" xlink:href="#DejaVuSans-109"/>
      <use x="411.140625" xlink:href="#DejaVuSans-97"/>
      <use x="472.419922" xlink:href="#DejaVuSans-108"/>
     </g>
    </g>
    <g id="line2d_27">
     <path d="M 446.11875 102.785625 
L 470.11875 102.785625 
" style="fill:none;stroke:#bfbf00;stroke-linecap:square;stroke-width:2;"/>
    </g>
    <g id="line2d_28"/>
    <g id="text_19">
     <!-- FGD Primal -->
     <g transform="translate(479.71875 106.985625)scale(0.12 -0.12)">
      <defs>
       <path d="M 9.8125 72.90625 
L 51.703125 72.90625 
L 51.703125 64.59375 
L 19.671875 64.59375 
L 19.671875 43.109375 
L 48.578125 43.109375 
L 48.578125 34.8125 
L 19.671875 34.8125 
L 19.671875 0 
L 9.8125 0 
z
" id="DejaVuSans-70"/>
      </defs>
      <use xlink:href="#DejaVuSans-70"/>
      <use x="57.519531" xlink:href="#DejaVuSans-71"/>
      <use x="135.009766" xlink:href="#DejaVuSans-68"/>
      <use x="212.011719" xlink:href="#DejaVuSans-32"/>
      <use x="243.798828" xlink:href="#DejaVuSans-80"/>
      <use x="302.351562" xlink:href="#DejaVuSans-114"/>
      <use x="343.464844" xlink:href="#DejaVuSans-105"/>
      <use x="371.248047" xlink:href="#DejaVuSans-109"/>
      <use x="468.660156" xlink:href="#DejaVuSans-97"/>
      <use x="529.939453" xlink:href="#DejaVuSans-108"/>
     </g>
    </g>
    <g id="line2d_29">
     <path d="M 446.11875 120.399375 
L 470.11875 120.399375 
" style="fill:none;stroke:#ff0000;stroke-linecap:square;stroke-width:2;"/>
    </g>
    <g id="line2d_30"/>
    <g id="text_20">
     <!-- ProxGD Primal -->
     <g transform="translate(479.71875 124.599375)scale(0.12 -0.12)">
      <defs>
       <path d="M 54.890625 54.6875 
L 35.109375 28.078125 
L 55.90625 0 
L 45.3125 0 
L 29.390625 21.484375 
L 13.484375 0 
L 2.875 0 
L 24.125 28.609375 
L 4.6875 54.6875 
L 15.28125 54.6875 
L 29.78125 35.203125 
L 44.28125 54.6875 
z
" id="DejaVuSans-120"/>
      </defs>
      <use xlink:href="#DejaVuSans-80"/>
      <use x="58.552734" xlink:href="#DejaVuSans-114"/>
      <use x="97.416016" xlink:href="#DejaVuSans-111"/>
      <use x="155.472656" xlink:href="#DejaVuSans-120"/>
      <use x="214.652344" xlink:href="#DejaVuSans-71"/>
      <use x="292.142578" xlink:href="#DejaVuSans-68"/>
      <use x="369.144531" xlink:href="#DejaVuSans-32"/>
      <use x="400.931641" xlink:href="#DejaVuSans-80"/>
      <use x="459.484375" xlink:href="#DejaVuSans-114"/>
      <use x="500.597656" xlink:href="#DejaVuSans-105"/>
      <use x="528.380859" xlink:href="#DejaVuSans-109"/>
      <use x="625.792969" xlink:href="#DejaVuSans-97"/>
      <use x="687.072266" xlink:href="#DejaVuSans-108"/>
     </g>
    </g>
    <g id="line2d_31">
     <path d="M 446.11875 138.013125 
L 470.11875 138.013125 
" style="fill:none;stroke:#000000;stroke-linecap:square;stroke-width:2;"/>
    </g>
    <g id="line2d_32"/>
    <g id="text_21">
     <!-- FProxGD Primal -->
     <g transform="translate(479.71875 142.213125)scale(0.12 -0.12)">
      <use xlink:href="#DejaVuSans-70"/>
      <use x="57.519531" xlink:href="#DejaVuSans-80"/>
      <use x="116.072266" xlink:href="#DejaVuSans-114"/>
      <use x="154.935547" xlink:href="#DejaVuSans-111"/>
      <use x="212.992188" xlink:href="#DejaVuSans-120"/>
      <use x="272.171875" xlink:href="#DejaVuSans-71"/>
      <use x="349.662109" xlink:href="#DejaVuSans-68"/>
      <use x="426.664062" xlink:href="#DejaVuSans-32"/>
      <use x="458.451172" xlink:href="#DejaVuSans-80"/>
      <use x="517.003906" xlink:href="#DejaVuSans-114"/>
      <use x="558.117188" xlink:href="#DejaVuSans-105"/>
      <use x="585.900391" xlink:href="#DejaVuSans-109"/>
      <use x="683.3125" xlink:href="#DejaVuSans-97"/>
      <use x="744.591797" xlink:href="#DejaVuSans-108"/>
     </g>
    </g>
    <g id="line2d_33">
     <path d="M 446.11875 155.626875 
L 470.11875 155.626875 
" style="fill:none;stroke:#ffdab9;stroke-linecap:square;stroke-width:2;"/>
    </g>
    <g id="line2d_34"/>
    <g id="text_22">
     <!-- ALM Dual -->
     <g transform="translate(479.71875 159.826875)scale(0.12 -0.12)">
      <defs>
       <path d="M 34.1875 63.1875 
L 20.796875 26.90625 
L 47.609375 26.90625 
z
M 28.609375 72.90625 
L 39.796875 72.90625 
L 67.578125 0 
L 57.328125 0 
L 50.6875 18.703125 
L 17.828125 18.703125 
L 11.1875 0 
L 0.78125 0 
z
" id="DejaVuSans-65"/>
       <path d="M 9.8125 72.90625 
L 19.671875 72.90625 
L 19.671875 8.296875 
L 55.171875 8.296875 
L 55.171875 0 
L 9.8125 0 
z
" id="DejaVuSans-76"/>
       <path d="M 9.8125 72.90625 
L 24.515625 72.90625 
L 43.109375 23.296875 
L 61.8125 72.90625 
L 76.515625 72.90625 
L 76.515625 0 
L 66.890625 0 
L 66.890625 64.015625 
L 48.09375 14.015625 
L 38.1875 14.015625 
L 19.390625 64.015625 
L 19.390625 0 
L 9.8125 0 
z
" id="DejaVuSans-77"/>
       <path d="M 8.5 21.578125 
L 8.5 54.6875 
L 17.484375 54.6875 
L 17.484375 21.921875 
Q 17.484375 14.15625 20.5 10.265625 
Q 23.53125 6.390625 29.59375 6.390625 
Q 36.859375 6.390625 41.078125 11.03125 
Q 45.3125 15.671875 45.3125 23.6875 
L 45.3125 54.6875 
L 54.296875 54.6875 
L 54.296875 0 
L 45.3125 0 
L 45.3125 8.40625 
Q 42.046875 3.421875 37.71875 1 
Q 33.40625 -1.421875 27.6875 -1.421875 
Q 18.265625 -1.421875 13.375 4.4375 
Q 8.5 10.296875 8.5 21.578125 
z
M 31.109375 56 
z
" id="DejaVuSans-117"/>
      </defs>
      <use xlink:href="#DejaVuSans-65"/>
      <use x="68.408203" xlink:href="#DejaVuSans-76"/>
      <use x="124.121094" xlink:href="#DejaVuSans-77"/>
      <use x="210.400391" xlink:href="#DejaVuSans-32"/>
      <use x="242.1875" xlink:href="#DejaVuSans-68"/>
      <use x="319.189453" xlink:href="#DejaVuSans-117"/>
      <use x="382.568359" xlink:href="#DejaVuSans-97"/>
      <use x="443.847656" xlink:href="#DejaVuSans-108"/>
     </g>
    </g>
    <g id="line2d_35">
     <path d="M 446.11875 173.240625 
L 470.11875 173.240625 
" style="fill:none;stroke:#bf00bf;stroke-linecap:square;stroke-width:2;"/>
    </g>
    <g id="line2d_36"/>
    <g id="text_23">
     <!-- ADMM Dual -->
     <g transform="translate(479.71875 177.440625)scale(0.12 -0.12)">
      <use xlink:href="#DejaVuSans-65"/>
      <use x="68.408203" xlink:href="#DejaVuSans-68"/>
      <use x="145.410156" xlink:href="#DejaVuSans-77"/>
      <use x="231.689453" xlink:href="#DejaVuSans-77"/>
      <use x="317.96875" xlink:href="#DejaVuSans-32"/>
      <use x="349.755859" xlink:href="#DejaVuSans-68"/>
      <use x="426.757812" xlink:href="#DejaVuSans-117"/>
      <use x="490.136719" xlink:href="#DejaVuSans-97"/>
      <use x="551.416016" xlink:href="#DejaVuSans-108"/>
     </g>
    </g>
    <g id="line2d_37">
     <path d="M 446.11875 190.854375 
L 470.11875 190.854375 
" style="fill:none;stroke:#00bfbf;stroke-linecap:square;stroke-width:2;"/>
    </g>
    <g id="line2d_38"/>
    <g id="text_24">
     <!-- ADMM Primal -->
     <g transform="translate(479.71875 195.054375)scale(0.12 -0.12)">
      <use xlink:href="#DejaVuSans-65"/>
      <use x="68.408203" xlink:href="#DejaVuSans-68"/>
      <use x="145.410156" xlink:href="#DejaVuSans-77"/>
      <use x="231.689453" xlink:href="#DejaVuSans-77"/>
      <use x="317.96875" xlink:href="#DejaVuSans-32"/>
      <use x="349.755859" xlink:href="#DejaVuSans-80"/>
      <use x="408.308594" xlink:href="#DejaVuSans-114"/>
      <use x="449.421875" xlink:href="#DejaVuSans-105"/>
      <use x="477.205078" xlink:href="#DejaVuSans-109"/>
      <use x="574.617188" xlink:href="#DejaVuSans-97"/>
      <use x="635.896484" xlink:href="#DejaVuSans-108"/>
     </g>
    </g>
   </g>
  </g>
 </g>
 <defs>
  <clipPath id="p3c5e940d02">
   <rect height="332.64" width="502.2" x="81" y="51.84"/>
  </clipPath>
 </defs>
</svg>
