<?xml version="1.0" encoding="utf-8" standalone="no"?>
<!DOCTYPE svg PUBLIC "-//W3C//DTD SVG 1.1//EN"
  "http://www.w3.org/Graphics/SVG/1.1/DTD/svg11.dtd">
<!-- Created with matplotlib (https://matplotlib.org/) -->
<svg height="432pt" version="1.1" viewBox="0 0 648 432" width="648pt" xmlns="http://www.w3.org/2000/svg" xmlns:xlink="http://www.w3.org/1999/xlink">
 <metadata>
  <rdf:RDF xmlns:cc="http://creativecommons.org/ns#" xmlns:dc="http://purl.org/dc/elements/1.1/" xmlns:rdf="http://www.w3.org/1999/02/22-rdf-syntax-ns#">
   <cc:Work>
    <dc:type rdf:resource="http://purl.org/dc/dcmitype/StillImage"/>
    <dc:date>2020-12-16T07:17:13.261723</dc:date>
    <dc:format>image/svg+xml</dc:format>
    <dc:creator>
     <cc:Agent>
      <dc:title>Matplotlib v3.3.3, https://matplotlib.org/</dc:title>
     </cc:Agent>
    </dc:creator>
   </cc:Work>
  </rdf:RDF>
 </metadata>
 <defs>
  <style type="text/css">*{stroke-linecap:butt;stroke-linejoin:round;}</style>
 </defs>
 <g id="figure_1">
  <g id="patch_1">
   <path d="M 0 432 
L 648 432 
L 648 0 
L 0 0 
z
" style="fill:#ffffff;"/>
  </g>
  <g id="axes_1">
   <g id="patch_2">
    <path d="M 81 384.48 
L 583.2 384.48 
L 583.2 51.84 
L 81 51.84 
z
" style="fill:#ffffff;"/>
   </g>
   <g id="matplotlib.axis_1">
    <g id="xtick_1">
     <g id="line2d_1">
      <defs>
       <path d="M 0 0 
L 0 3.5 
" id="m4fb02b3c14" style="stroke:#000000;stroke-width:0.8;"/>
      </defs>
      <g>
       <use style="stroke:#000000;stroke-width:0.8;" x="103.827273" xlink:href="#m4fb02b3c14" y="384.48"/>
      </g>
     </g>
     <g id="text_1">
      <!-- 0 -->
      <g transform="translate(100.646023 399.078438)scale(0.1 -0.1)">
       <defs>
        <path d="M 31.78125 66.40625 
Q 24.171875 66.40625 20.328125 58.90625 
Q 16.5 51.421875 16.5 36.375 
Q 16.5 21.390625 20.328125 13.890625 
Q 24.171875 6.390625 31.78125 6.390625 
Q 39.453125 6.390625 43.28125 13.890625 
Q 47.125 21.390625 47.125 36.375 
Q 47.125 51.421875 43.28125 58.90625 
Q 39.453125 66.40625 31.78125 66.40625 
z
M 31.78125 74.21875 
Q 44.046875 74.21875 50.515625 64.515625 
Q 56.984375 54.828125 56.984375 36.375 
Q 56.984375 17.96875 50.515625 8.265625 
Q 44.046875 -1.421875 31.78125 -1.421875 
Q 19.53125 -1.421875 13.0625 8.265625 
Q 6.59375 17.96875 6.59375 36.375 
Q 6.59375 54.828125 13.0625 64.515625 
Q 19.53125 74.21875 31.78125 74.21875 
z
" id="DejaVuSans-48"/>
       </defs>
       <use xlink:href="#DejaVuSans-48"/>
      </g>
     </g>
    </g>
    <g id="xtick_2">
     <g id="line2d_2">
      <g>
       <use style="stroke:#000000;stroke-width:0.8;" x="164.708117" xlink:href="#m4fb02b3c14" y="384.48"/>
      </g>
     </g>
     <g id="text_2">
      <!-- 1000 -->
      <g transform="translate(151.983117 399.078438)scale(0.1 -0.1)">
       <defs>
        <path d="M 12.40625 8.296875 
L 28.515625 8.296875 
L 28.515625 63.921875 
L 10.984375 60.40625 
L 10.984375 69.390625 
L 28.421875 72.90625 
L 38.28125 72.90625 
L 38.28125 8.296875 
L 54.390625 8.296875 
L 54.390625 0 
L 12.40625 0 
z
" id="DejaVuSans-49"/>
       </defs>
       <use xlink:href="#DejaVuSans-49"/>
       <use x="63.623047" xlink:href="#DejaVuSans-48"/>
       <use x="127.246094" xlink:href="#DejaVuSans-48"/>
       <use x="190.869141" xlink:href="#DejaVuSans-48"/>
      </g>
     </g>
    </g>
    <g id="xtick_3">
     <g id="line2d_3">
      <g>
       <use style="stroke:#000000;stroke-width:0.8;" x="225.588962" xlink:href="#m4fb02b3c14" y="384.48"/>
      </g>
     </g>
     <g id="text_3">
      <!-- 2000 -->
      <g transform="translate(212.863962 399.078438)scale(0.1 -0.1)">
       <defs>
        <path d="M 19.1875 8.296875 
L 53.609375 8.296875 
L 53.609375 0 
L 7.328125 0 
L 7.328125 8.296875 
Q 12.9375 14.109375 22.625 23.890625 
Q 32.328125 33.6875 34.8125 36.53125 
Q 39.546875 41.84375 41.421875 45.53125 
Q 43.3125 49.21875 43.3125 52.78125 
Q 43.3125 58.59375 39.234375 62.25 
Q 35.15625 65.921875 28.609375 65.921875 
Q 23.96875 65.921875 18.8125 64.3125 
Q 13.671875 62.703125 7.8125 59.421875 
L 7.8125 69.390625 
Q 13.765625 71.78125 18.9375 73 
Q 24.125 74.21875 28.421875 74.21875 
Q 39.75 74.21875 46.484375 68.546875 
Q 53.21875 62.890625 53.21875 53.421875 
Q 53.21875 48.921875 51.53125 44.890625 
Q 49.859375 40.875 45.40625 35.40625 
Q 44.1875 33.984375 37.640625 27.21875 
Q 31.109375 20.453125 19.1875 8.296875 
z
" id="DejaVuSans-50"/>
       </defs>
       <use xlink:href="#DejaVuSans-50"/>
       <use x="63.623047" xlink:href="#DejaVuSans-48"/>
       <use x="127.246094" xlink:href="#DejaVuSans-48"/>
       <use x="190.869141" xlink:href="#DejaVuSans-48"/>
      </g>
     </g>
    </g>
    <g id="xtick_4">
     <g id="line2d_4">
      <g>
       <use style="stroke:#000000;stroke-width:0.8;" x="286.469807" xlink:href="#m4fb02b3c14" y="384.48"/>
      </g>
     </g>
     <g id="text_4">
      <!-- 3000 -->
      <g transform="translate(273.744807 399.078438)scale(0.1 -0.1)">
       <defs>
        <path d="M 40.578125 39.3125 
Q 47.65625 37.796875 51.625 33 
Q 55.609375 28.21875 55.609375 21.1875 
Q 55.609375 10.40625 48.1875 4.484375 
Q 40.765625 -1.421875 27.09375 -1.421875 
Q 22.515625 -1.421875 17.65625 -0.515625 
Q 12.796875 0.390625 7.625 2.203125 
L 7.625 11.71875 
Q 11.71875 9.328125 16.59375 8.109375 
Q 21.484375 6.890625 26.8125 6.890625 
Q 36.078125 6.890625 40.9375 10.546875 
Q 45.796875 14.203125 45.796875 21.1875 
Q 45.796875 27.640625 41.28125 31.265625 
Q 36.765625 34.90625 28.71875 34.90625 
L 20.21875 34.90625 
L 20.21875 43.015625 
L 29.109375 43.015625 
Q 36.375 43.015625 40.234375 45.921875 
Q 44.09375 48.828125 44.09375 54.296875 
Q 44.09375 59.90625 40.109375 62.90625 
Q 36.140625 65.921875 28.71875 65.921875 
Q 24.65625 65.921875 20.015625 65.03125 
Q 15.375 64.15625 9.8125 62.3125 
L 9.8125 71.09375 
Q 15.4375 72.65625 20.34375 73.4375 
Q 25.25 74.21875 29.59375 74.21875 
Q 40.828125 74.21875 47.359375 69.109375 
Q 53.90625 64.015625 53.90625 55.328125 
Q 53.90625 49.265625 50.4375 45.09375 
Q 46.96875 40.921875 40.578125 39.3125 
z
" id="DejaVuSans-51"/>
       </defs>
       <use xlink:href="#DejaVuSans-51"/>
       <use x="63.623047" xlink:href="#DejaVuSans-48"/>
       <use x="127.246094" xlink:href="#DejaVuSans-48"/>
       <use x="190.869141" xlink:href="#DejaVuSans-48"/>
      </g>
     </g>
    </g>
    <g id="xtick_5">
     <g id="line2d_5">
      <g>
       <use style="stroke:#000000;stroke-width:0.8;" x="347.350652" xlink:href="#m4fb02b3c14" y="384.48"/>
      </g>
     </g>
     <g id="text_5">
      <!-- 4000 -->
      <g transform="translate(334.625652 399.078438)scale(0.1 -0.1)">
       <defs>
        <path d="M 37.796875 64.3125 
L 12.890625 25.390625 
L 37.796875 25.390625 
z
M 35.203125 72.90625 
L 47.609375 72.90625 
L 47.609375 25.390625 
L 58.015625 25.390625 
L 58.015625 17.1875 
L 47.609375 17.1875 
L 47.609375 0 
L 37.796875 0 
L 37.796875 17.1875 
L 4.890625 17.1875 
L 4.890625 26.703125 
z
" id="DejaVuSans-52"/>
       </defs>
       <use xlink:href="#DejaVuSans-52"/>
       <use x="63.623047" xlink:href="#DejaVuSans-48"/>
       <use x="127.246094" xlink:href="#DejaVuSans-48"/>
       <use x="190.869141" xlink:href="#DejaVuSans-48"/>
      </g>
     </g>
    </g>
    <g id="xtick_6">
     <g id="line2d_6">
      <g>
       <use style="stroke:#000000;stroke-width:0.8;" x="408.231496" xlink:href="#m4fb02b3c14" y="384.48"/>
      </g>
     </g>
     <g id="text_6">
      <!-- 5000 -->
      <g transform="translate(395.506496 399.078438)scale(0.1 -0.1)">
       <defs>
        <path d="M 10.796875 72.90625 
L 49.515625 72.90625 
L 49.515625 64.59375 
L 19.828125 64.59375 
L 19.828125 46.734375 
Q 21.96875 47.46875 24.109375 47.828125 
Q 26.265625 48.1875 28.421875 48.1875 
Q 40.625 48.1875 47.75 41.5 
Q 54.890625 34.8125 54.890625 23.390625 
Q 54.890625 11.625 47.5625 5.09375 
Q 40.234375 -1.421875 26.90625 -1.421875 
Q 22.3125 -1.421875 17.546875 -0.640625 
Q 12.796875 0.140625 7.71875 1.703125 
L 7.71875 11.625 
Q 12.109375 9.234375 16.796875 8.0625 
Q 21.484375 6.890625 26.703125 6.890625 
Q 35.15625 6.890625 40.078125 11.328125 
Q 45.015625 15.765625 45.015625 23.390625 
Q 45.015625 31 40.078125 35.4375 
Q 35.15625 39.890625 26.703125 39.890625 
Q 22.75 39.890625 18.8125 39.015625 
Q 14.890625 38.140625 10.796875 36.28125 
z
" id="DejaVuSans-53"/>
       </defs>
       <use xlink:href="#DejaVuSans-53"/>
       <use x="63.623047" xlink:href="#DejaVuSans-48"/>
       <use x="127.246094" xlink:href="#DejaVuSans-48"/>
       <use x="190.869141" xlink:href="#DejaVuSans-48"/>
      </g>
     </g>
    </g>
    <g id="xtick_7">
     <g id="line2d_7">
      <g>
       <use style="stroke:#000000;stroke-width:0.8;" x="469.112341" xlink:href="#m4fb02b3c14" y="384.48"/>
      </g>
     </g>
     <g id="text_7">
      <!-- 6000 -->
      <g transform="translate(456.387341 399.078438)scale(0.1 -0.1)">
       <defs>
        <path d="M 33.015625 40.375 
Q 26.375 40.375 22.484375 35.828125 
Q 18.609375 31.296875 18.609375 23.390625 
Q 18.609375 15.53125 22.484375 10.953125 
Q 26.375 6.390625 33.015625 6.390625 
Q 39.65625 6.390625 43.53125 10.953125 
Q 47.40625 15.53125 47.40625 23.390625 
Q 47.40625 31.296875 43.53125 35.828125 
Q 39.65625 40.375 33.015625 40.375 
z
M 52.59375 71.296875 
L 52.59375 62.3125 
Q 48.875 64.0625 45.09375 64.984375 
Q 41.3125 65.921875 37.59375 65.921875 
Q 27.828125 65.921875 22.671875 59.328125 
Q 17.53125 52.734375 16.796875 39.40625 
Q 19.671875 43.65625 24.015625 45.921875 
Q 28.375 48.1875 33.59375 48.1875 
Q 44.578125 48.1875 50.953125 41.515625 
Q 57.328125 34.859375 57.328125 23.390625 
Q 57.328125 12.15625 50.6875 5.359375 
Q 44.046875 -1.421875 33.015625 -1.421875 
Q 20.359375 -1.421875 13.671875 8.265625 
Q 6.984375 17.96875 6.984375 36.375 
Q 6.984375 53.65625 15.1875 63.9375 
Q 23.390625 74.21875 37.203125 74.21875 
Q 40.921875 74.21875 44.703125 73.484375 
Q 48.484375 72.75 52.59375 71.296875 
z
" id="DejaVuSans-54"/>
       </defs>
       <use xlink:href="#DejaVuSans-54"/>
       <use x="63.623047" xlink:href="#DejaVuSans-48"/>
       <use x="127.246094" xlink:href="#DejaVuSans-48"/>
       <use x="190.869141" xlink:href="#DejaVuSans-48"/>
      </g>
     </g>
    </g>
    <g id="xtick_8">
     <g id="line2d_8">
      <g>
       <use style="stroke:#000000;stroke-width:0.8;" x="529.993186" xlink:href="#m4fb02b3c14" y="384.48"/>
      </g>
     </g>
     <g id="text_8">
      <!-- 7000 -->
      <g transform="translate(517.268186 399.078438)scale(0.1 -0.1)">
       <defs>
        <path d="M 8.203125 72.90625 
L 55.078125 72.90625 
L 55.078125 68.703125 
L 28.609375 0 
L 18.3125 0 
L 43.21875 64.59375 
L 8.203125 64.59375 
z
" id="DejaVuSans-55"/>
       </defs>
       <use xlink:href="#DejaVuSans-55"/>
       <use x="63.623047" xlink:href="#DejaVuSans-48"/>
       <use x="127.246094" xlink:href="#DejaVuSans-48"/>
       <use x="190.869141" xlink:href="#DejaVuSans-48"/>
      </g>
     </g>
    </g>
    <g id="text_9">
     <!-- Iteration -->
     <g transform="translate(310.891406 412.756563)scale(0.1 -0.1)">
      <defs>
       <path d="M 9.8125 72.90625 
L 19.671875 72.90625 
L 19.671875 0 
L 9.8125 0 
z
" id="DejaVuSans-73"/>
       <path d="M 18.3125 70.21875 
L 18.3125 54.6875 
L 36.8125 54.6875 
L 36.8125 47.703125 
L 18.3125 47.703125 
L 18.3125 18.015625 
Q 18.3125 11.328125 20.140625 9.421875 
Q 21.96875 7.515625 27.59375 7.515625 
L 36.8125 7.515625 
L 36.8125 0 
L 27.59375 0 
Q 17.1875 0 13.234375 3.875 
Q 9.28125 7.765625 9.28125 18.015625 
L 9.28125 47.703125 
L 2.6875 47.703125 
L 2.6875 54.6875 
L 9.28125 54.6875 
L 9.28125 70.21875 
z
" id="DejaVuSans-116"/>
       <path d="M 56.203125 29.59375 
L 56.203125 25.203125 
L 14.890625 25.203125 
Q 15.484375 15.921875 20.484375 11.0625 
Q 25.484375 6.203125 34.421875 6.203125 
Q 39.59375 6.203125 44.453125 7.46875 
Q 49.3125 8.734375 54.109375 11.28125 
L 54.109375 2.78125 
Q 49.265625 0.734375 44.1875 -0.34375 
Q 39.109375 -1.421875 33.890625 -1.421875 
Q 20.796875 -1.421875 13.15625 6.1875 
Q 5.515625 13.8125 5.515625 26.8125 
Q 5.515625 40.234375 12.765625 48.109375 
Q 20.015625 56 32.328125 56 
Q 43.359375 56 49.78125 48.890625 
Q 56.203125 41.796875 56.203125 29.59375 
z
M 47.21875 32.234375 
Q 47.125 39.59375 43.09375 43.984375 
Q 39.0625 48.390625 32.421875 48.390625 
Q 24.90625 48.390625 20.390625 44.140625 
Q 15.875 39.890625 15.1875 32.171875 
z
" id="DejaVuSans-101"/>
       <path d="M 41.109375 46.296875 
Q 39.59375 47.171875 37.8125 47.578125 
Q 36.03125 48 33.890625 48 
Q 26.265625 48 22.1875 43.046875 
Q 18.109375 38.09375 18.109375 28.8125 
L 18.109375 0 
L 9.078125 0 
L 9.078125 54.6875 
L 18.109375 54.6875 
L 18.109375 46.1875 
Q 20.953125 51.171875 25.484375 53.578125 
Q 30.03125 56 36.53125 56 
Q 37.453125 56 38.578125 55.875 
Q 39.703125 55.765625 41.0625 55.515625 
z
" id="DejaVuSans-114"/>
       <path d="M 34.28125 27.484375 
Q 23.390625 27.484375 19.1875 25 
Q 14.984375 22.515625 14.984375 16.5 
Q 14.984375 11.71875 18.140625 8.90625 
Q 21.296875 6.109375 26.703125 6.109375 
Q 34.1875 6.109375 38.703125 11.40625 
Q 43.21875 16.703125 43.21875 25.484375 
L 43.21875 27.484375 
z
M 52.203125 31.203125 
L 52.203125 0 
L 43.21875 0 
L 43.21875 8.296875 
Q 40.140625 3.328125 35.546875 0.953125 
Q 30.953125 -1.421875 24.3125 -1.421875 
Q 15.921875 -1.421875 10.953125 3.296875 
Q 6 8.015625 6 15.921875 
Q 6 25.140625 12.171875 29.828125 
Q 18.359375 34.515625 30.609375 34.515625 
L 43.21875 34.515625 
L 43.21875 35.40625 
Q 43.21875 41.609375 39.140625 45 
Q 35.0625 48.390625 27.6875 48.390625 
Q 23 48.390625 18.546875 47.265625 
Q 14.109375 46.140625 10.015625 43.890625 
L 10.015625 52.203125 
Q 14.9375 54.109375 19.578125 55.046875 
Q 24.21875 56 28.609375 56 
Q 40.484375 56 46.34375 49.84375 
Q 52.203125 43.703125 52.203125 31.203125 
z
" id="DejaVuSans-97"/>
       <path d="M 9.421875 54.6875 
L 18.40625 54.6875 
L 18.40625 0 
L 9.421875 0 
z
M 9.421875 75.984375 
L 18.40625 75.984375 
L 18.40625 64.59375 
L 9.421875 64.59375 
z
" id="DejaVuSans-105"/>
       <path d="M 30.609375 48.390625 
Q 23.390625 48.390625 19.1875 42.75 
Q 14.984375 37.109375 14.984375 27.296875 
Q 14.984375 17.484375 19.15625 11.84375 
Q 23.34375 6.203125 30.609375 6.203125 
Q 37.796875 6.203125 41.984375 11.859375 
Q 46.1875 17.53125 46.1875 27.296875 
Q 46.1875 37.015625 41.984375 42.703125 
Q 37.796875 48.390625 30.609375 48.390625 
z
M 30.609375 56 
Q 42.328125 56 49.015625 48.375 
Q 55.71875 40.765625 55.71875 27.296875 
Q 55.71875 13.875 49.015625 6.21875 
Q 42.328125 -1.421875 30.609375 -1.421875 
Q 18.84375 -1.421875 12.171875 6.21875 
Q 5.515625 13.875 5.515625 27.296875 
Q 5.515625 40.765625 12.171875 48.375 
Q 18.84375 56 30.609375 56 
z
" id="DejaVuSans-111"/>
       <path d="M 54.890625 33.015625 
L 54.890625 0 
L 45.90625 0 
L 45.90625 32.71875 
Q 45.90625 40.484375 42.875 44.328125 
Q 39.84375 48.1875 33.796875 48.1875 
Q 26.515625 48.1875 22.3125 43.546875 
Q 18.109375 38.921875 18.109375 30.90625 
L 18.109375 0 
L 9.078125 0 
L 9.078125 54.6875 
L 18.109375 54.6875 
L 18.109375 46.1875 
Q 21.34375 51.125 25.703125 53.5625 
Q 30.078125 56 35.796875 56 
Q 45.21875 56 50.046875 50.171875 
Q 54.890625 44.34375 54.890625 33.015625 
z
" id="DejaVuSans-110"/>
      </defs>
      <use xlink:href="#DejaVuSans-73"/>
      <use x="29.492188" xlink:href="#DejaVuSans-116"/>
      <use x="68.701172" xlink:href="#DejaVuSans-101"/>
      <use x="130.224609" xlink:href="#DejaVuSans-114"/>
      <use x="171.337891" xlink:href="#DejaVuSans-97"/>
      <use x="232.617188" xlink:href="#DejaVuSans-116"/>
      <use x="271.826172" xlink:href="#DejaVuSans-105"/>
      <use x="299.609375" xlink:href="#DejaVuSans-111"/>
      <use x="360.791016" xlink:href="#DejaVuSans-110"/>
     </g>
    </g>
   </g>
   <g id="matplotlib.axis_2">
    <g id="ytick_1">
     <g id="line2d_9">
      <defs>
       <path d="M 0 0 
L -3.5 0 
" id="m321000c2d9" style="stroke:#000000;stroke-width:0.8;"/>
      </defs>
      <g>
       <use style="stroke:#000000;stroke-width:0.8;" x="81" xlink:href="#m321000c2d9" y="345.681706"/>
      </g>
     </g>
     <g id="text_10">
      <!-- $\mathdefault{10^{-7}}$ -->
      <g transform="translate(50.5 349.480924)scale(0.1 -0.1)">
       <defs>
        <path d="M 10.59375 35.5 
L 73.1875 35.5 
L 73.1875 27.203125 
L 10.59375 27.203125 
z
" id="DejaVuSans-8722"/>
       </defs>
       <use transform="translate(0 0.684375)" xlink:href="#DejaVuSans-49"/>
       <use transform="translate(63.623047 0.684375)" xlink:href="#DejaVuSans-48"/>
       <use transform="translate(128.203125 38.965625)scale(0.7)" xlink:href="#DejaVuSans-8722"/>
       <use transform="translate(186.855469 38.965625)scale(0.7)" xlink:href="#DejaVuSans-55"/>
      </g>
     </g>
    </g>
    <g id="ytick_2">
     <g id="line2d_10">
      <g>
       <use style="stroke:#000000;stroke-width:0.8;" x="81" xlink:href="#m321000c2d9" y="300.617472"/>
      </g>
     </g>
     <g id="text_11">
      <!-- $\mathdefault{10^{-5}}$ -->
      <g transform="translate(50.5 304.416691)scale(0.1 -0.1)">
       <use transform="translate(0 0.684375)" xlink:href="#DejaVuSans-49"/>
       <use transform="translate(63.623047 0.684375)" xlink:href="#DejaVuSans-48"/>
       <use transform="translate(128.203125 38.965625)scale(0.7)" xlink:href="#DejaVuSans-8722"/>
       <use transform="translate(186.855469 38.965625)scale(0.7)" xlink:href="#DejaVuSans-53"/>
      </g>
     </g>
    </g>
    <g id="ytick_3">
     <g id="line2d_11">
      <g>
       <use style="stroke:#000000;stroke-width:0.8;" x="81" xlink:href="#m321000c2d9" y="255.553239"/>
      </g>
     </g>
     <g id="text_12">
      <!-- $\mathdefault{10^{-3}}$ -->
      <g transform="translate(50.5 259.352457)scale(0.1 -0.1)">
       <use transform="translate(0 0.765625)" xlink:href="#DejaVuSans-49"/>
       <use transform="translate(63.623047 0.765625)" xlink:href="#DejaVuSans-48"/>
       <use transform="translate(128.203125 39.046875)scale(0.7)" xlink:href="#DejaVuSans-8722"/>
       <use transform="translate(186.855469 39.046875)scale(0.7)" xlink:href="#DejaVuSans-51"/>
      </g>
     </g>
    </g>
    <g id="ytick_4">
     <g id="line2d_12">
      <g>
       <use style="stroke:#000000;stroke-width:0.8;" x="81" xlink:href="#m321000c2d9" y="210.489005"/>
      </g>
     </g>
     <g id="text_13">
      <!-- $\mathdefault{10^{-1}}$ -->
      <g transform="translate(50.5 214.288224)scale(0.1 -0.1)">
       <use transform="translate(0 0.684375)" xlink:href="#DejaVuSans-49"/>
       <use transform="translate(63.623047 0.684375)" xlink:href="#DejaVuSans-48"/>
       <use transform="translate(128.203125 38.965625)scale(0.7)" xlink:href="#DejaVuSans-8722"/>
       <use transform="translate(186.855469 38.965625)scale(0.7)" xlink:href="#DejaVuSans-49"/>
      </g>
     </g>
    </g>
    <g id="ytick_5">
     <g id="line2d_13">
      <g>
       <use style="stroke:#000000;stroke-width:0.8;" x="81" xlink:href="#m321000c2d9" y="165.424772"/>
      </g>
     </g>
     <g id="text_14">
      <!-- $\mathdefault{10^{1}}$ -->
      <g transform="translate(56.4 169.22399)scale(0.1 -0.1)">
       <use transform="translate(0 0.684375)" xlink:href="#DejaVuSans-49"/>
       <use transform="translate(63.623047 0.684375)" xlink:href="#DejaVuSans-48"/>
       <use transform="translate(128.203125 38.965625)scale(0.7)" xlink:href="#DejaVuSans-49"/>
      </g>
     </g>
    </g>
    <g id="ytick_6">
     <g id="line2d_14">
      <g>
       <use style="stroke:#000000;stroke-width:0.8;" x="81" xlink:href="#m321000c2d9" y="120.360538"/>
      </g>
     </g>
     <g id="text_15">
      <!-- $\mathdefault{10^{3}}$ -->
      <g transform="translate(56.4 124.159757)scale(0.1 -0.1)">
       <use transform="translate(0 0.765625)" xlink:href="#DejaVuSans-49"/>
       <use transform="translate(63.623047 0.765625)" xlink:href="#DejaVuSans-48"/>
       <use transform="translate(128.203125 39.046875)scale(0.7)" xlink:href="#DejaVuSans-51"/>
      </g>
     </g>
    </g>
    <g id="ytick_7">
     <g id="line2d_15">
      <g>
       <use style="stroke:#000000;stroke-width:0.8;" x="81" xlink:href="#m321000c2d9" y="75.296305"/>
      </g>
     </g>
     <g id="text_16">
      <!-- $\mathdefault{10^{5}}$ -->
      <g transform="translate(56.4 79.095523)scale(0.1 -0.1)">
       <use transform="translate(0 0.684375)" xlink:href="#DejaVuSans-49"/>
       <use transform="translate(63.623047 0.684375)" xlink:href="#DejaVuSans-48"/>
       <use transform="translate(128.203125 38.965625)scale(0.7)" xlink:href="#DejaVuSans-53"/>
      </g>
     </g>
    </g>
    <g id="text_17">
     <!-- $(f(x^k)-f^*)/f^*$ -->
     <g transform="translate(44.420312 251.66)rotate(-90)scale(0.1 -0.1)">
      <defs>
       <path d="M 31 75.875 
Q 24.46875 64.65625 21.28125 53.65625 
Q 18.109375 42.671875 18.109375 31.390625 
Q 18.109375 20.125 21.3125 9.0625 
Q 24.515625 -2 31 -13.1875 
L 23.1875 -13.1875 
Q 15.875 -1.703125 12.234375 9.375 
Q 8.59375 20.453125 8.59375 31.390625 
Q 8.59375 42.28125 12.203125 53.3125 
Q 15.828125 64.359375 23.1875 75.875 
z
" id="DejaVuSans-40"/>
       <path d="M 47.796875 75.984375 
L 46.390625 68.5 
L 37.796875 68.5 
Q 32.90625 68.5 30.6875 66.578125 
Q 28.46875 64.65625 27.390625 59.515625 
L 26.421875 54.6875 
L 41.21875 54.6875 
L 39.890625 47.703125 
L 25.09375 47.703125 
L 15.828125 0 
L 6.78125 0 
L 16.109375 47.703125 
L 7.515625 47.703125 
L 8.796875 54.6875 
L 17.390625 54.6875 
L 18.109375 58.5 
Q 19.96875 68.171875 24.625 72.078125 
Q 29.296875 75.984375 39.3125 75.984375 
z
" id="DejaVuSans-Oblique-102"/>
       <path d="M 60.015625 54.6875 
L 34.90625 27.875 
L 50.296875 0 
L 39.984375 0 
L 28.421875 21.6875 
L 8.296875 0 
L -2.59375 0 
L 24.3125 28.8125 
L 10.015625 54.6875 
L 20.3125 54.6875 
L 30.8125 34.90625 
L 49.125 54.6875 
z
" id="DejaVuSans-Oblique-120"/>
       <path d="M 18.3125 75.984375 
L 27.296875 75.984375 
L 18.703125 31.6875 
L 49.515625 54.6875 
L 61.1875 54.6875 
L 26.8125 28.515625 
L 51.90625 0 
L 41.015625 0 
L 17.671875 26.703125 
L 12.5 0 
L 3.515625 0 
z
" id="DejaVuSans-Oblique-107"/>
       <path d="M 8.015625 75.875 
L 15.828125 75.875 
Q 23.140625 64.359375 26.78125 53.3125 
Q 30.421875 42.28125 30.421875 31.390625 
Q 30.421875 20.453125 26.78125 9.375 
Q 23.140625 -1.703125 15.828125 -13.1875 
L 8.015625 -13.1875 
Q 14.5 -2 17.703125 9.0625 
Q 20.90625 20.125 20.90625 31.390625 
Q 20.90625 42.671875 17.703125 53.65625 
Q 14.5 64.65625 8.015625 75.875 
z
" id="DejaVuSans-41"/>
       <path d="M 47.015625 60.890625 
L 29.5 51.421875 
L 47.015625 41.890625 
L 44.1875 37.109375 
L 27.78125 47.015625 
L 27.78125 28.609375 
L 22.21875 28.609375 
L 22.21875 47.015625 
L 5.8125 37.109375 
L 2.984375 41.890625 
L 20.515625 51.421875 
L 2.984375 60.890625 
L 5.8125 65.71875 
L 22.21875 55.8125 
L 22.21875 74.21875 
L 27.78125 74.21875 
L 27.78125 55.8125 
L 44.1875 65.71875 
z
" id="DejaVuSans-42"/>
       <path d="M 25.390625 72.90625 
L 33.6875 72.90625 
L 8.296875 -9.28125 
L 0 -9.28125 
z
" id="DejaVuSans-47"/>
      </defs>
      <use transform="translate(0 0.529687)" xlink:href="#DejaVuSans-40"/>
      <use transform="translate(39.013672 0.529687)" xlink:href="#DejaVuSans-Oblique-102"/>
      <use transform="translate(74.21875 0.529687)" xlink:href="#DejaVuSans-40"/>
      <use transform="translate(113.232422 0.529687)" xlink:href="#DejaVuSans-Oblique-120"/>
      <use transform="translate(176.878255 38.810937)scale(0.7)" xlink:href="#DejaVuSans-Oblique-107"/>
      <use transform="translate(220.14974 0.529687)" xlink:href="#DejaVuSans-41"/>
      <use transform="translate(278.645833 0.529687)" xlink:href="#DejaVuSans-8722"/>
      <use transform="translate(381.917318 0.529687)" xlink:href="#DejaVuSans-Oblique-102"/>
      <use transform="translate(438.207799 38.810937)scale(0.7)" xlink:href="#DejaVuSans-42"/>
      <use transform="translate(489.57987 0.529687)" xlink:href="#DejaVuSans-41"/>
      <use transform="translate(528.593542 0.529687)" xlink:href="#DejaVuSans-47"/>
      <use transform="translate(562.284948 0.529687)" xlink:href="#DejaVuSans-Oblique-102"/>
      <use transform="translate(618.57543 38.810937)scale(0.7)" xlink:href="#DejaVuSans-42"/>
     </g>
    </g>
   </g>
   <g id="line2d_16">
    <path clip-path="url(#p3f732deddb)" d="M 103.827273 66.96 
L 104.009915 95.782759 
L 104.314319 110.253323 
L 104.679605 117.664433 
L 105.04489 120.784024 
L 105.410175 122.126163 
L 105.77546 122.736135 
L 106.262507 123.105212 
L 107.053957 123.360311 
L 109.306549 123.736587 
L 123.917951 126.075232 
L 137.555261 128.476138 
L 161.420552 133.011863 
L 177.188691 135.897165 
L 185.955532 137.317248 
L 197.157608 138.953638 
L 210.734036 140.605108 
L 218.95295 141.40625 
L 229.120051 142.223414 
L 231.616166 142.388576 
L 231.737927 165.253768 
L 231.981451 165.474267 
L 232.65114 165.587864 
L 235.086374 165.669949 
L 250.002181 165.828961 
L 302.664112 166.166943 
L 359.46594 166.455824 
L 359.587701 260.875004 
L 360.074748 281.745865 
L 360.866199 304.339856 
L 361.779412 330.999676 
L 362.022935 344.176511 
L 362.144697 369.333331 
L 362.14487 433 
L 362.14487 433 
" style="fill:none;stroke:#008000;stroke-linecap:square;stroke-width:2;"/>
   </g>
   <g id="line2d_17">
    <path clip-path="url(#p3f732deddb)" d="M 103.827273 67.003108 
L 104.070796 100.867253 
L 104.496962 120.195192 
L 105.10577 137.090944 
L 105.836341 151.804359 
L 106.445149 160.388647 
L 106.932196 164.687297 
L 107.419243 167.117134 
L 107.845408 168.25667 
L 108.332455 168.951076 
L 108.880383 169.355169 
L 109.732715 169.680171 
L 111.498259 170.052927 
L 117.951629 171.095489 
L 130.797487 173.244596 
L 143.582464 175.614965 
L 146.87003 176.212808 
L 172.439985 180.279356 
L 176.275478 180.767597 
L 178.649831 181.057564 
L 182.120039 181.441833 
L 186.564341 182.038779 
L 195.392063 182.996864 
L 196.487918 183.124177 
L 198.557867 183.346126 
L 199.592841 183.435578 
L 203.976262 183.7093 
L 208.11616 184.08529 
L 215.300099 184.838132 
L 217.187406 185.20996 
L 220.048805 185.673815 
L 223.214609 186.075907 
L 225.4672 186.564502 
L 227.050102 187.128988 
L 230.337668 188.264852 
L 232.164093 188.984141 
L 233.686115 189.671542 
L 238.008654 191.968583 
L 239.713318 193.22143 
L 241.29622 194.798422 
L 242.270314 196.04945 
L 243.122645 197.423676 
L 243.670573 198.452646 
L 244.522905 200.342714 
L 245.557879 203.238894 
L 246.288449 205.511098 
L 247.384305 208.227304 
L 247.993113 209.074509 
L 248.48016 209.442873 
L 249.149849 209.637362 
L 250.428347 209.721808 
L 256.029385 209.734783 
L 256.272908 221.712898 
L 256.759955 233.452238 
L 257.612286 248.472533 
L 258.038452 253.480376 
L 258.403737 255.558344 
L 258.769023 256.544179 
L 259.195188 257.068118 
L 259.743116 257.338135 
L 260.595448 257.464604 
L 262.969801 257.503848 
L 343.028112 257.504796 
L 408.231496 257.504796 
L 408.779424 281.745961 
L 409.570875 304.340022 
L 410.484088 331.000357 
L 410.727611 344.178694 
L 410.849373 369.36 
L 410.849546 433 
L 410.849546 433 
" style="fill:none;stroke:#0000ff;stroke-linecap:square;stroke-width:2;"/>
   </g>
   <g id="line2d_18">
    <path clip-path="url(#p3f732deddb)" d="M 103.827273 67.003108 
L 104.070796 104.020242 
L 104.679605 153.330442 
L 104.923128 159.150819 
L 105.166651 162.166126 
L 105.592817 168.183888 
L 105.897221 169.288496 
L 106.566911 170.949405 
L 107.175719 172.44496 
L 107.906289 174.137803 
L 108.515098 176.046862 
L 109.610953 179.342091 
L 110.037119 180.26847 
L 111.011212 182.452353 
L 111.254736 182.719753 
L 112.776757 186.277247 
L 112.837638 186.236964 
L 113.02028 186.08788 
L 113.081161 186.129009 
L 113.872612 188.598802 
L 113.994374 188.554181 
L 114.237897 188.682848 
L 114.42054 188.834177 
L 114.542301 189.046118 
L 114.664063 188.746406 
L 114.907586 187.993136 
L 115.090229 187.962668 
L 115.272872 187.990485 
L 115.699037 188.386056 
L 115.820799 188.385575 
L 116.186084 187.902289 
L 116.246965 187.89215 
L 116.429608 188.386409 
L 116.61225 187.885277 
L 116.794893 188.372895 
L 117.038416 189.198573 
L 117.099297 189.055611 
L 117.281939 188.913638 
L 117.34282 188.750837 
L 117.403701 188.829629 
L 117.951629 190.921205 
L 118.195152 190.636025 
L 118.682199 191.66152 
L 118.925722 193.687072 
L 119.108365 195.584924 
L 119.291007 195.362953 
L 119.351888 195.493181 
L 119.47365 195.718089 
L 119.656292 194.828027 
L 120.143339 191.037134 
L 120.265101 190.966417 
L 120.569505 191.29896 
L 120.813028 191.140803 
L 120.93479 191.393664 
L 121.117433 191.057237 
L 121.543599 189.334831 
L 121.726241 189.301344 
L 122.030645 189.996204 
L 122.456811 189.811278 
L 122.761215 190.251549 
L 123.187381 191.14478 
L 123.370024 191.412617 
L 123.613547 192.058451 
L 124.222356 194.253886 
L 124.952926 196.825522 
L 125.379092 198.431449 
L 125.622615 198.784067 
L 125.683496 198.723758 
L 125.805258 198.578933 
L 127.144636 194.40208 
L 127.44904 194.312779 
L 127.753445 194.726286 
L 128.240491 195.904868 
L 128.910181 197.578947 
L 129.275466 198.045725 
L 129.57987 198.143925 
L 129.884274 198.015562 
L 130.371321 197.500622 
L 131.893342 195.691127 
L 132.623912 195.251679 
L 133.476244 195.016397 
L 134.450338 194.968026 
L 135.424431 195.135737 
L 136.520286 195.553249 
L 138.529354 196.348239 
L 140.964588 197.151772 
L 141.938682 197.812759 
L 143.460703 199.182506 
L 145.226247 200.689839 
L 146.504745 201.492691 
L 147.539719 201.90542 
L 148.392051 202.023903 
L 149.244383 201.916518 
L 150.279357 201.539806 
L 152.531949 200.642971 
L 153.566923 200.508659 
L 154.723659 200.59388 
L 156.24568 200.950242 
L 158.498271 201.725197 
L 160.446458 202.333965 
L 161.664075 202.474343 
L 162.942573 202.385875 
L 164.89076 201.990422 
L 169.030657 201.125253 
L 170.491798 201.07606 
L 171.952938 201.257829 
L 173.170555 201.458588 
L 173.474959 201.019694 
L 173.962006 199.829445 
L 175.423146 196.011401 
L 175.971074 195.214567 
L 176.45812 194.874777 
L 176.884286 194.842395 
L 177.310452 195.025428 
L 177.85838 195.509683 
L 178.893354 196.803047 
L 179.806567 197.79385 
L 180.476256 198.191992 
L 181.145946 198.314623 
L 182.241801 198.228485 
L 182.972371 198.212912 
L 184.068226 199.275279 
L 184.737915 199.616064 
L 185.407605 199.708405 
L 187.416673 199.816779 
L 188.208124 200.193205 
L 191.008642 201.784082 
L 191.860974 201.855711 
L 192.956829 201.709703 
L 194.478851 201.276409 
L 195.14854 201.025172 
L 195.331182 221.696289 
L 195.696467 233.583004 
L 196.427038 244.805174 
L 196.792323 248.880093 
L 197.096727 250.464533 
L 197.401131 251.105637 
L 197.766416 251.337357 
L 198.131701 251.296919 
L 198.74051 250.920162 
L 200.262531 249.933597 
L 201.175743 249.645773 
L 202.149837 249.577193 
L 204.280667 249.720218 
L 207.507351 249.872558 
L 213.838959 249.78473 
L 215.726265 249.790548 
L 215.908908 267.89624 
L 216.700359 307.169386 
L 216.76124 321.540368 
L 216.761543 433 
L 216.761543 433 
" style="fill:none;stroke:#bfbf00;stroke-linecap:square;stroke-width:2;"/>
   </g>
   <g id="line2d_19">
    <path clip-path="url(#p3f732deddb)" d="M 103.827273 67.003108 
L 104.070796 102.531004 
L 104.436081 122.550766 
L 105.04489 143.145953 
L 105.653698 157.268688 
L 106.140745 164.135125 
L 106.871315 168.074035 
L 107.175719 168.655334 
L 107.358362 168.823188 
L 107.419243 169.033632 
L 107.480123 168.829594 
L 107.662766 169.168632 
L 107.845408 169.242871 
L 107.906289 169.309085 
L 107.96717 169.166386 
L 108.149813 169.468605 
L 108.210694 169.211885 
L 108.393336 169.505829 
L 108.575979 169.392247 
L 108.758621 169.666755 
L 108.819502 169.39254 
L 109.002145 169.676604 
L 109.184787 169.690345 
L 109.245668 169.746638 
L 109.306549 169.585211 
L 109.489191 169.858823 
L 109.550072 169.580192 
L 109.732715 169.863452 
L 109.915357 169.728313 
L 110.098 170.001784 
L 110.158881 169.716646 
L 110.219761 169.971312 
L 110.280642 169.943409 
L 110.463285 170.032351 
L 110.645927 169.891075 
L 110.82857 170.167166 
L 110.889451 169.872334 
L 110.950332 170.134732 
L 111.011212 170.106396 
L 111.193855 170.19255 
L 111.376497 170.187914 
L 111.55914 170.275209 
L 111.741783 170.275103 
L 111.924425 170.362907 
L 111.985306 170.187596 
L 112.167948 170.464426 
L 112.228829 170.155279 
L 112.28971 170.425323 
L 112.350591 170.390208 
L 112.533234 170.479123 
L 112.715876 170.474461 
L 112.898519 170.574164 
L 113.081161 170.435119 
L 113.263804 170.722963 
L 113.324685 170.439091 
L 113.507327 170.755801 
L 113.568208 170.607716 
L 113.629089 170.811241 
L 113.68997 170.526802 
L 113.872612 170.844613 
L 113.933493 170.53766 
L 114.116135 170.859928 
L 114.177016 170.702282 
L 114.237897 170.934695 
L 114.298778 170.643638 
L 114.481421 171.006218 
L 114.542301 170.739089 
L 114.724944 171.079163 
L 114.785825 170.640495 
L 114.846706 170.980661 
L 115.029348 171.023726 
L 115.090229 171.09784 
L 115.15111 170.936847 
L 115.211991 171.172737 
L 115.272872 170.884013 
L 115.455514 171.235604 
L 115.516395 170.961403 
L 115.699037 171.304968 
L 115.759918 171.048742 
L 115.820799 171.298814 
L 115.88168 171.158502 
L 116.064323 171.301158 
L 116.125203 171.149629 
L 116.186084 171.390806 
L 116.246965 171.112114 
L 116.429608 171.467846 
L 116.490488 171.216402 
L 116.551369 171.465681 
L 116.61225 171.173823 
L 116.794893 171.545898 
L 116.855773 171.284676 
L 116.916654 171.543368 
L 116.977535 171.420613 
L 117.160178 171.567326 
L 117.221059 171.416819 
L 117.281939 171.654478 
L 117.34282 171.394814 
L 117.403701 171.657611 
L 117.464582 171.53561 
L 117.647224 171.694022 
L 117.708105 171.560911 
L 117.768986 171.783768 
L 117.829867 171.540572 
L 117.890748 171.78754 
L 117.951629 171.512506 
L 118.134271 171.875163 
L 118.195152 171.456371 
L 118.256033 171.789854 
L 118.438675 171.732423 
L 118.499556 171.958702 
L 118.560437 171.719228 
L 118.621318 171.965874 
L 118.682199 171.693153 
L 118.74308 171.970225 
L 118.803961 171.851267 
L 118.986603 172.001182 
L 119.047484 171.856252 
L 119.108365 172.091784 
L 119.169246 171.830397 
L 119.230126 172.09353 
L 119.291007 171.973564 
L 119.47365 172.127978 
L 119.534531 171.992524 
L 119.595412 172.220747 
L 119.656292 171.966717 
L 119.717173 172.221977 
L 119.778054 172.107561 
L 119.960697 172.254609 
L 120.021577 172.124368 
L 120.082458 172.34485 
L 120.143339 172.104392 
L 120.20422 172.350259 
L 120.265101 172.079332 
L 120.447743 172.440313 
L 120.508624 172.018928 
L 120.569505 172.347347 
L 120.813028 172.515596 
L 120.873909 172.274485 
L 120.93479 172.518335 
L 120.995671 172.245538 
L 121.178313 172.608829 
L 121.239194 172.369918 
L 121.300075 172.610752 
L 121.360956 172.344677 
L 121.421837 172.613934 
L 121.482718 172.497922 
L 121.66536 172.67057 
L 121.726241 172.563066 
L 121.787122 172.639677 
L 121.969764 172.768209 
L 122.030645 172.54585 
L 122.091526 172.879469 
L 122.152407 172.357386 
L 122.213288 172.820529 
L 122.274169 172.743226 
L 122.456811 172.706752 
L 122.517692 172.946501 
L 122.578573 172.693415 
L 122.639454 172.956236 
L 122.700335 172.670678 
L 122.761215 172.965101 
L 122.822096 172.846339 
L 123.004739 173.028917 
L 123.06562 172.899959 
L 123.126501 172.996435 
L 123.309143 172.954237 
L 123.370024 173.190609 
L 123.430905 172.756268 
L 123.491786 173.110028 
L 123.674428 173.047768 
L 123.735309 173.288033 
L 123.79619 173.01977 
L 123.857071 173.292358 
L 123.917951 172.991289 
L 123.978832 173.295066 
L 124.039713 173.147829 
L 124.222356 173.327999 
L 124.283237 173.15919 
L 124.344117 173.426658 
L 124.404998 173.13171 
L 124.465879 173.432119 
L 124.52676 173.293168 
L 124.648522 173.395371 
L 124.709402 173.340611 
L 124.770283 173.486595 
L 124.831164 173.433147 
L 125.013807 173.33741 
L 125.074688 173.613939 
L 125.135568 173.314038 
L 125.196449 173.617376 
L 125.25733 173.467737 
L 125.379092 173.568643 
L 125.439973 173.516061 
L 125.500853 173.657196 
L 125.561734 173.444024 
L 125.622615 173.760895 
L 125.683496 173.426885 
L 125.744377 173.769373 
L 125.805258 173.405196 
L 125.9879 173.871521 
L 126.048781 173.355756 
L 126.109662 173.786321 
L 126.170543 173.742464 
L 126.231424 173.867281 
L 126.292304 173.673671 
L 126.353185 173.964174 
L 126.414066 173.451972 
L 126.474947 173.881096 
L 126.596709 173.809909 
L 126.71847 173.90981 
L 126.779351 173.857216 
L 126.840232 173.999825 
L 126.901113 173.787591 
L 126.961994 174.104692 
L 127.022875 173.772132 
L 127.083755 174.114911 
L 127.144636 173.752875 
L 127.205517 174.122379 
L 127.266398 173.93296 
L 127.44904 174.17801 
L 127.509921 173.986825 
L 127.570802 174.282155 
L 127.631683 173.776323 
L 127.692564 174.205928 
L 127.753445 174.167026 
L 127.814326 174.146958 
L 127.875206 174.263927 
L 127.936087 174.092349 
L 127.996968 174.374095 
L 128.057849 174.088198 
L 128.11873 174.390838 
L 128.179611 174.087378 
L 128.240491 174.408273 
L 128.301372 174.088053 
L 128.362253 174.42588 
L 128.423134 174.279517 
L 128.544896 174.394138 
L 128.605777 174.350702 
L 128.666657 174.496941 
L 128.727538 174.30189 
L 128.788419 174.466685 
L 128.910181 174.413099 
L 128.971062 174.531899 
L 129.031942 174.35967 
L 129.092823 174.649371 
L 129.153704 174.166589 
L 129.275466 174.58413 
L 129.336347 174.530752 
L 129.397228 174.685664 
L 129.458108 174.486928 
L 129.518989 174.663022 
L 129.640751 174.623053 
L 129.701632 174.744751 
L 129.762513 174.594768 
L 129.823393 174.730703 
L 130.31044 174.761252 
L 130.371321 174.932092 
L 130.432202 174.733097 
L 130.493083 174.923973 
L 130.553964 174.888975 
L 130.614844 174.889435 
L 130.675725 175.004763 
L 130.858368 174.865663 
L 130.980129 175.03445 
L 131.101891 175.017573 
L 131.284534 175.149802 
L 131.345415 175.009397 
L 131.406295 175.154821 
L 131.467176 175.000603 
L 131.528057 175.305966 
L 131.588938 174.873621 
L 131.649819 175.268893 
L 131.7107 175.139538 
L 131.893342 175.295046 
L 131.954223 175.150336 
L 132.075985 175.327637 
L 132.258627 175.289294 
L 132.319508 175.465696 
L 132.380389 175.29437 
L 132.44127 175.478882 
L 132.502151 175.295854 
L 132.563031 175.492675 
L 132.623912 175.297932 
L 132.684793 175.504387 
L 132.745674 175.478501 
L 133.17184 175.658928 
L 133.232721 175.462498 
L 133.293602 175.670502 
L 133.354482 175.634966 
L 133.598006 175.7695 
L 133.658887 175.649164 
L 133.841529 175.776406 
L 133.90241 175.645871 
L 133.963291 175.920849 
L 134.024172 175.53809 
L 134.206814 175.979137 
L 134.267695 175.598214 
L 134.450338 176.062364 
L 134.511218 175.665871 
L 134.693861 176.118272 
L 134.754742 175.702063 
L 134.937384 176.172842 
L 134.998265 175.938259 
L 135.059146 176.23484 
L 135.120027 175.839313 
L 135.302669 176.280562 
L 135.36355 175.880742 
L 135.546193 176.345118 
L 135.607074 175.910667 
L 135.667955 176.326633 
L 135.728835 176.21585 
L 135.911478 176.386484 
L 135.972359 176.095598 
L 136.155001 176.520818 
L 136.215882 176.1359 
L 136.398525 176.576114 
L 136.459405 176.174096 
L 136.642048 176.624416 
L 136.702929 176.196866 
L 136.885571 176.675199 
L 136.946452 176.432389 
L 137.007333 176.736594 
L 137.068214 176.360204 
L 137.250856 176.786711 
L 137.311737 176.385788 
L 137.49438 176.84007 
L 137.555261 176.43786 
L 137.737903 176.902521 
L 137.798784 176.504123 
L 137.981427 176.967051 
L 138.042307 176.601534 
L 138.103188 176.964222 
L 138.164069 176.717916 
L 138.346712 176.92586 
L 138.407593 176.814391 
L 138.590235 177.008014 
L 138.651116 176.928934 
L 138.711997 177.05658 
L 138.772878 176.821989 
L 138.833758 177.14053 
L 138.894639 176.772217 
L 139.077282 177.211159 
L 139.138163 176.85632 
L 139.320805 177.27407 
L 139.381686 176.920175 
L 139.564329 177.330936 
L 139.625209 176.978677 
L 139.68609 177.325156 
L 139.746971 176.918451 
L 139.929614 177.396967 
L 139.990494 177.02311 
L 140.173137 177.467648 
L 140.234018 177.122889 
L 140.294899 177.470839 
L 140.35578 177.077122 
L 140.538422 177.558365 
L 140.599303 177.205895 
L 140.660184 177.563562 
L 140.721065 177.165936 
L 140.903707 177.651559 
L 140.964588 177.303614 
L 141.025469 177.657961 
L 141.08635 177.267046 
L 141.268992 177.746001 
L 141.329873 177.401671 
L 141.390754 177.753553 
L 141.451635 177.391584 
L 141.512516 177.767107 
L 141.573396 177.381361 
L 141.634277 177.774837 
L 141.695158 177.567704 
L 141.877801 177.78326 
L 141.938682 177.548269 
L 141.999562 177.87109 
L 142.060443 177.519454 
L 142.121324 177.880797 
L 142.182205 177.497661 
L 142.243086 177.890193 
L 142.303967 177.491344 
L 142.364847 177.909779 
L 142.425728 177.698409 
L 142.486609 177.873857 
L 142.54749 177.792738 
L 142.791013 177.792539 
L 142.851894 177.961173 
L 142.912775 177.727183 
L 142.973656 178.065483 
L 143.034537 177.751136 
L 143.095418 178.083281 
L 143.156298 177.780281 
L 143.217179 178.111787 
L 143.27806 177.820454 
L 143.338941 178.013111 
L 143.460703 177.958178 
L 143.521583 178.022355 
L 143.582464 177.891319 
L 143.643345 178.118376 
L 143.704226 177.843712 
L 143.765107 178.227322 
L 143.825988 177.885642 
L 143.886869 178.262487 
L 143.947749 177.930034 
L 144.00863 178.291164 
L 144.069511 177.963431 
L 144.130392 178.204465 
L 144.191273 178.100719 
L 144.252154 178.161332 
L 144.434796 178.308729 
L 144.495677 178.083032 
L 144.556558 178.430702 
L 144.617439 178.14255 
L 144.67832 178.353063 
L 144.7392 178.275177 
L 144.860962 178.368447 
L 144.921843 178.255204 
L 144.982724 178.466692 
L 145.043605 178.224835 
L 145.104485 178.586214 
L 145.165366 178.29032 
L 145.226247 178.510316 
L 145.287128 178.415385 
L 145.40889 178.525741 
L 145.469771 178.444351 
L 145.530651 178.490034 
L 145.591532 178.558297 
L 145.652413 178.439411 
L 145.713294 178.666752 
L 145.774175 178.422343 
L 145.835056 178.668841 
L 145.895936 178.570793 
L 146.017698 178.675699 
L 146.078579 178.597171 
L 146.13946 178.789212 
L 146.200341 178.595136 
L 146.261221 178.806587 
L 146.322102 178.588605 
L 146.382983 178.810937 
L 146.443864 178.740622 
L 146.565626 178.846172 
L 146.626507 178.745367 
L 146.687387 178.944333 
L 146.748268 178.53614 
L 146.809149 178.997018 
L 146.87003 178.621516 
L 146.930911 179.048121 
L 146.991792 178.699931 
L 147.052672 179.095358 
L 147.113553 178.776493 
L 147.174434 179.137178 
L 147.235315 178.831348 
L 147.296196 179.056363 
L 147.357077 178.793659 
L 147.417958 179.180163 
L 147.478838 178.858296 
L 147.539719 179.226973 
L 147.6006 178.903459 
L 147.661481 179.153531 
L 147.722362 179.042691 
L 147.783243 179.121018 
L 147.965885 179.243362 
L 148.026766 179.056719 
L 148.087647 179.235234 
L 148.148528 179.037267 
L 148.209409 179.364044 
L 148.270289 179.142926 
L 148.33117 179.302423 
L 148.392051 179.139317 
L 148.452932 179.313971 
L 148.513813 179.140071 
L 148.574694 179.327864 
L 148.635574 179.146036 
L 148.757336 179.332095 
L 149.548787 179.52197 
L 149.609668 179.63522 
L 149.670549 179.50564 
L 149.73143 179.620847 
L 150.279357 179.693387 
L 150.340238 179.800686 
L 150.401119 179.669029 
L 150.462 179.901435 
L 150.522881 179.498014 
L 150.583761 179.953561 
L 150.644642 179.595219 
L 150.705523 179.998697 
L 150.766404 179.695256 
L 150.827285 179.945772 
L 150.888166 179.694972 
L 150.949047 179.962357 
L 151.009927 179.702831 
L 151.070808 179.98113 
L 151.131689 179.707283 
L 151.19257 180.100801 
L 151.253451 179.804749 
L 151.314332 180.044968 
L 151.375212 179.796513 
L 151.436093 180.055723 
L 151.496974 179.80542 
L 151.557855 180.176939 
L 151.618736 179.898159 
L 151.679617 180.131493 
L 151.740498 179.896861 
L 151.801378 180.149456 
L 151.862259 179.903833 
L 151.92314 180.159936 
L 151.984021 179.911422 
L 152.044902 180.176943 
L 152.105783 180.066558 
L 152.166663 180.16018 
L 152.227544 180.032882 
L 152.288425 180.266189 
L 152.349306 179.88119 
L 152.410187 180.323372 
L 152.471068 179.996263 
L 152.531949 180.375918 
L 152.592829 180.087516 
L 152.65371 180.320943 
L 152.714591 180.08238 
L 152.775472 180.331599 
L 152.836353 180.082943 
L 152.897234 180.332927 
L 152.958114 180.088359 
L 153.018995 180.349312 
L 153.079876 180.115083 
L 153.140757 180.369439 
L 153.201638 180.139882 
L 153.262519 180.397982 
L 153.323399 180.164034 
L 153.38428 180.410649 
L 153.445161 180.1541 
L 153.506042 180.509639 
L 153.566923 180.228407 
L 153.627804 180.455664 
L 153.688685 180.228378 
L 153.749565 180.462298 
L 153.810446 180.234853 
L 153.871327 180.47606 
L 153.932208 180.246694 
L 153.993089 180.487814 
L 154.05397 180.256467 
L 154.11485 180.498108 
L 154.175731 180.265545 
L 154.236612 180.508691 
L 154.297493 180.276739 
L 154.358374 180.613984 
L 154.419255 180.380306 
L 154.601897 180.632035 
L 154.662778 180.44425 
L 154.845421 180.699771 
L 154.906301 180.368248 
L 154.967182 180.765011 
L 155.028063 180.510374 
L 155.088944 180.737241 
L 155.149825 180.531967 
L 155.210706 180.766366 
L 155.271587 180.565087 
L 155.332467 180.78484 
L 155.393348 180.58567 
L 155.454229 180.810339 
L 155.51511 180.472632 
L 155.575991 180.875481 
L 155.636872 180.626903 
L 155.819514 180.868627 
L 155.880395 180.549196 
L 155.941276 180.929844 
L 156.002157 180.703868 
L 156.184799 180.946138 
L 156.24568 180.680104 
L 156.306561 181.015477 
L 156.367442 180.869955 
L 156.550084 180.970596 
L 156.610965 180.832357 
L 156.671846 181.024858 
L 156.732727 180.788859 
L 156.793608 181.102808 
L 156.854488 180.971715 
L 156.915369 181.007629 
L 156.97625 180.873882 
L 157.037131 181.066201 
L 157.098012 180.826779 
L 157.158893 181.147191 
L 157.219774 181.036197 
L 157.645939 181.115622 
L 157.70682 181.034335 
L 157.767701 181.205207 
L 157.828582 181.047235 
L 157.889463 181.21535 
L 157.950344 181.049225 
L 158.011225 181.229851 
L 158.072105 181.051171 
L 158.132986 181.334382 
L 158.193867 181.278629 
L 158.254748 181.168286 
L 158.315629 181.326557 
L 158.37651 181.150368 
L 158.43739 181.309304 
L 158.498271 181.234438 
L 158.559152 181.376732 
L 158.620033 181.198109 
L 158.680914 181.357683 
L 158.802676 181.340052 
L 159.046199 181.413751 
L 159.10708 181.334466 
L 159.167961 181.484318 
L 159.228841 181.312838 
L 159.289722 181.473775 
L 159.350603 181.414353 
L 159.594126 181.492067 
L 159.655007 181.441999 
L 159.83765 181.597195 
L 159.898531 181.498027 
L 160.081173 181.625415 
L 160.263816 181.543059 
L 160.446458 181.665479 
L 160.507339 181.57903 
L 160.689982 181.722253 
L 160.872624 181.663606 
L 161.055267 181.780489 
L 161.237909 181.749314 
L 161.420552 181.865544 
L 161.603194 181.79155 
L 161.664075 181.903187 
L 161.724956 181.860474 
L 162.090241 181.909577 
L 164.038428 182.569551 
L 164.099309 182.367486 
L 164.16019 182.584493 
L 164.221071 182.38445 
L 164.281952 182.60476 
L 164.342832 182.387635 
L 164.403713 182.625897 
L 164.464594 182.400779 
L 164.525475 182.638569 
L 164.586356 182.421657 
L 164.647237 182.658799 
L 164.708117 182.428256 
L 164.768998 182.671039 
L 164.829879 182.434458 
L 164.89076 182.676434 
L 164.951641 182.560552 
L 165.012522 182.667027 
L 165.073403 182.528834 
L 165.134283 182.721843 
L 165.195164 182.543913 
L 165.256045 182.737251 
L 165.316926 182.550042 
L 165.377807 182.751103 
L 165.438688 182.553093 
L 165.499568 182.762381 
L 165.560449 182.572599 
L 165.743092 182.805678 
L 165.925734 182.721414 
L 166.169258 182.903835 
L 166.3519 182.833051 
L 166.534543 182.93656 
L 166.717185 182.852619 
L 166.899828 183.048726 
L 167.204232 182.943023 
L 168.969777 183.157092 
L 169.030657 183.133151 
L 169.091538 183.241619 
L 169.152419 183.201539 
L 169.456823 183.21562 
L 169.822108 183.256359 
L 170.491798 183.28729 
L 170.613559 183.337858 
L 170.917964 183.324811 
L 171.161487 183.344267 
L 171.34413 183.34743 
L 171.587653 183.43042 
L 171.770295 183.402339 
L 171.952938 183.527239 
L 172.135581 183.493662 
L 172.439985 183.650368 
L 172.500866 183.52884 
L 172.561746 183.657415 
L 172.622627 183.556341 
L 172.80527 183.683826 
L 172.866151 183.622908 
L 172.927031 183.750421 
L 172.987912 183.615892 
L 173.048793 183.703854 
L 173.109674 183.656888 
L 173.170555 183.772355 
L 173.231436 183.641634 
L 173.292317 183.735488 
L 173.353197 183.675651 
L 173.414078 183.786937 
L 173.474959 183.645304 
L 173.657602 183.798713 
L 173.718482 183.735045 
L 173.779363 183.867928 
L 173.840244 183.723268 
L 173.901125 183.834967 
L 173.962006 183.764096 
L 174.022887 183.907785 
L 174.083768 183.74836 
L 174.144648 183.867544 
L 174.205529 183.793668 
L 174.26641 183.927995 
L 174.327291 183.773302 
L 174.388172 183.897455 
L 174.449053 183.813828 
L 174.509933 183.957304 
L 174.570814 183.75887 
L 174.753457 183.995308 
L 174.814338 183.779465 
L 174.875219 184.009304 
L 174.936099 183.838339 
L 174.99698 184.016489 
L 175.057861 183.891928 
L 175.240504 184.091157 
L 175.301384 183.88798 
L 175.362265 184.051112 
L 175.423146 183.948153 
L 175.484027 184.071373 
L 175.544908 183.941409 
L 175.72755 184.076728 
L 175.788431 184.035164 
L 175.849312 184.179856 
L 175.910193 184.008969 
L 176.092835 184.198059 
L 176.153716 184.102099 
L 176.336359 184.291369 
L 176.39724 184.18854 
L 176.579882 184.364059 
L 176.640763 184.270637 
L 176.823406 184.460314 
L 176.884286 184.432435 
L 176.945167 184.584549 
L 177.006048 184.367787 
L 177.066929 184.599172 
L 177.12781 184.424306 
L 177.310452 184.652188 
L 177.371333 184.500131 
L 177.432214 184.68278 
L 177.493095 184.464334 
L 177.553976 184.723356 
L 177.614857 184.548969 
L 177.797499 184.806937 
L 177.85838 184.562144 
L 177.919261 184.851087 
L 177.980142 184.654848 
L 178.162784 184.93582 
L 178.223665 184.734947 
L 178.406308 184.999837 
L 178.467188 184.827378 
L 178.528069 185.041957 
L 178.58895 184.798173 
L 178.649831 185.057709 
L 178.710712 184.80519 
L 178.771593 185.090729 
L 178.832473 184.88833 
L 178.893354 185.121452 
L 178.954235 184.93892 
L 179.136878 185.179376 
L 179.197758 184.963656 
L 179.258639 185.203475 
L 179.31952 185.005107 
L 179.502163 185.276282 
L 179.563044 185.06753 
L 179.623924 185.290999 
L 179.684805 185.053639 
L 179.745686 185.369212 
L 179.806567 185.155335 
L 179.867448 185.413781 
L 179.928329 185.15053 
L 179.989209 185.465853 
L 180.05009 185.248958 
L 180.110971 185.494693 
L 180.171852 185.307066 
L 180.354495 185.590571 
L 180.415375 185.378075 
L 180.598018 185.681817 
L 180.658899 185.461686 
L 180.841541 185.774996 
L 180.902422 185.492034 
L 180.963303 185.795045 
L 181.024184 185.571504 
L 181.206826 185.824019 
L 181.267707 185.652518 
L 181.45035 185.868274 
L 181.511231 185.724443 
L 181.572111 185.862424 
L 181.632992 185.791929 
L 181.693873 185.933101 
L 181.754754 185.752209 
L 181.937397 186.017102 
L 181.998277 185.896895 
L 182.18092 186.131117 
L 182.241801 186.03239 
L 182.302682 186.207837 
L 182.363562 186.039994 
L 182.546205 186.305382 
L 182.607086 186.238741 
L 182.789728 186.459499 
L 182.850609 186.349505 
L 183.033252 186.585715 
L 183.094133 186.432172 
L 183.276775 186.656417 
L 183.337656 186.505154 
L 183.520298 186.74794 
L 183.581179 186.675929 
L 183.763822 186.854057 
L 183.824703 186.788973 
L 184.007345 186.975283 
L 184.068226 186.900483 
L 184.250869 187.118991 
L 184.311749 187.018309 
L 184.494392 187.245762 
L 184.555273 187.162187 
L 184.737915 187.389188 
L 184.798796 187.258095 
L 184.981439 187.526163 
L 185.04232 187.394372 
L 185.224962 187.641702 
L 185.285843 187.540168 
L 185.468485 187.827336 
L 185.529366 187.691259 
L 185.712009 188.038378 
L 185.77289 187.908747 
L 185.955532 188.255099 
L 186.016413 188.108733 
L 186.199056 188.463694 
L 186.259936 188.355388 
L 186.442579 188.673662 
L 186.50346 188.563517 
L 186.686102 188.884616 
L 186.746983 188.797446 
L 186.929626 189.093644 
L 186.990507 189.020313 
L 187.173149 189.254146 
L 187.23403 189.244148 
L 187.416673 189.456477 
L 187.599315 189.508712 
L 188.816932 190.757858 
L 189.669264 191.851596 
L 191.069523 194.774676 
L 191.860974 197.62118 
L 192.408902 200.051276 
L 193.01771 202.29946 
L 193.443876 202.881133 
L 193.870042 203.12583 
L 194.783255 203.17146 
L 199.714603 203.173161 
L 199.897246 220.634159 
L 200.506054 242.936546 
L 200.810458 247.880646 
L 201.114863 249.25346 
L 201.419267 249.651922 
L 201.845433 249.801482 
L 202.941288 249.844633 
L 206.350615 249.845832 
L 206.7159 297.164239 
L 206.716269 433 
L 206.716269 433 
" style="fill:none;stroke:#ff0000;stroke-linecap:square;stroke-width:2;"/>
   </g>
   <g id="line2d_20">
    <path clip-path="url(#p3f732deddb)" d="M 103.827273 67.003108 
L 104.070796 104.018155 
L 104.679605 153.317297 
L 104.923128 159.148385 
L 105.166651 162.161412 
L 105.592817 168.181996 
L 105.897221 169.291596 
L 106.566911 170.950188 
L 107.175719 172.447575 
L 107.906289 174.134025 
L 108.454217 175.842154 
L 109.671834 179.538485 
L 110.767689 182.09605 
L 111.072093 182.444385 
L 111.315617 182.846305 
L 112.228829 185.067127 
L 112.837638 186.255944 
L 113.142042 186.204011 
L 113.507327 187.24269 
L 113.994374 188.546684 
L 114.055255 188.524877 
L 114.359659 188.579794 
L 114.603182 188.773606 
L 114.785825 188.091463 
L 114.968467 187.721008 
L 115.029348 187.736381 
L 115.211991 188.106119 
L 115.455514 188.166129 
L 115.759918 188.345294 
L 115.88168 188.365919 
L 116.003442 188.021542 
L 116.186084 187.467301 
L 116.246965 187.471332 
L 116.429608 187.84588 
L 116.61225 187.462581 
L 116.734012 187.991538 
L 116.916654 189.208965 
L 116.977535 189.172059 
L 117.281939 188.623222 
L 117.34282 188.660845 
L 117.890748 190.568136 
L 118.07339 190.293456 
L 118.195152 190.745764 
L 118.621318 193.944609 
L 119.047484 199.241127 
L 119.108365 199.233265 
L 119.351888 198.060517 
L 119.595412 197.28232 
L 119.717173 197.32709 
L 119.778054 197.329939 
L 119.960697 198.309376 
L 120.20422 201.696987 
L 120.447743 204.329274 
L 120.508624 204.489013 
L 120.569505 204.455199 
L 120.691267 203.897578 
L 121.056552 201.765532 
L 121.178313 201.664889 
L 121.239194 201.68216 
L 121.543599 202.411939 
L 121.969764 202.791199 
L 122.152407 203.060575 
L 122.33505 202.977381 
L 122.700335 202.501467 
L 123.004739 202.613524 
L 123.552666 202.794283 
L 123.735309 202.741875 
L 123.978832 202.71075 
L 124.404998 202.778022 
L 125.013807 202.527426 
L 125.439973 202.723247 
L 125.683496 202.946079 
L 125.866139 202.885009 
L 126.474947 202.456626 
L 127.144636 202.868302 
L 127.753445 202.599527 
L 128.11873 202.501893 
L 128.605777 202.949024 
L 128.727538 202.91957 
L 129.092823 202.567482 
L 129.458108 202.605055 
L 129.884274 202.690779 
L 130.066917 202.85672 
L 130.432202 202.678728 
L 130.919249 202.747944 
L 131.345415 202.535213 
L 131.7107 202.623783 
L 131.893342 202.763853 
L 132.197746 202.906315 
L 132.563031 202.555621 
L 132.928317 202.609493 
L 133.110959 202.782309 
L 133.537125 202.78533 
L 133.780648 202.855557 
L 134.145933 202.430996 
L 134.450338 202.6425 
L 134.572099 202.733744 
L 134.754742 202.891389 
L 134.998265 202.775172 
L 135.241789 202.776287 
L 135.546193 202.557799 
L 135.850597 202.514228 
L 136.398525 202.970474 
L 136.824691 202.591774 
L 137.068214 202.68648 
L 137.311737 202.604826 
L 137.555261 202.635346 
L 137.737903 202.848713 
L 138.103188 202.690056 
L 138.590235 202.745298 
L 139.016401 202.533024 
L 139.381686 202.621006 
L 139.564329 202.763997 
L 139.868733 202.909051 
L 140.234018 202.552995 
L 140.599303 202.606941 
L 140.781945 202.782341 
L 141.208111 202.786631 
L 141.451635 202.855228 
L 141.81692 202.427408 
L 142.121324 202.641671 
L 142.851894 202.859471 
L 143.27806 202.515153 
L 143.521583 202.510641 
L 144.00863 202.925264 
L 144.191273 202.76223 
L 144.434796 202.576965 
L 144.982724 202.683543 
L 145.530651 202.749243 
L 145.774175 202.628105 
L 146.322102 202.746162 
L 146.626507 202.587427 
L 146.87003 202.647203 
L 147.783243 202.765801 
L 148.148528 202.462775 
L 148.33117 202.554571 
L 148.513813 202.741347 
L 148.757336 202.723929 
L 149.244383 202.812946 
L 149.548787 202.428619 
L 149.853191 202.681635 
L 150.035834 202.832994 
L 150.279357 202.830479 
L 150.827285 202.607508 
L 151.009927 202.486687 
L 151.679617 202.880196 
L 151.862259 202.965918 
L 152.227544 202.565258 
L 152.471068 202.680908 
L 152.714591 202.590718 
L 153.079876 202.843967 
L 153.201638 202.872086 
L 153.566923 202.663092 
L 154.11485 202.738918 
L 154.601897 202.526677 
L 154.906301 202.688037 
L 155.088944 202.79083 
L 155.393348 202.927594 
L 156.002157 202.458694 
L 156.063037 202.467496 
L 156.24568 202.712136 
L 156.428323 202.683893 
L 156.97625 202.905347 
L 157.402416 202.417697 
L 157.463297 202.4758 
L 157.889463 202.750443 
L 158.193867 202.778256 
L 158.37651 202.900391 
L 158.863556 202.527183 
L 159.046199 202.624662 
L 159.472365 202.838836 
L 159.83765 202.61802 
L 160.020292 202.644794 
L 160.202935 202.72745 
L 160.446458 202.567207 
L 160.750863 202.752938 
L 160.933505 202.839967 
L 161.237909 202.542953 
L 161.724956 202.859132 
L 162.272884 202.648279 
L 162.516407 202.57343 
L 162.75993 202.62904 
L 162.942573 202.878547 
L 163.064335 202.92165 
L 163.490501 202.599063 
L 163.794905 202.637097 
L 164.281952 202.87529 
L 164.768998 202.693319 
L 165.073403 202.418707 
L 165.62133 202.820107 
L 165.803973 202.967752 
L 165.986615 202.899302 
L 166.169258 202.723789 
L 166.412781 202.484556 
L 166.656304 202.5728 
L 167.02159 202.761269 
L 167.204232 202.808934 
L 167.447755 202.728939 
L 167.75216 202.642814 
L 167.934802 202.698525 
L 168.178326 202.550236 
L 168.421849 202.711192 
L 168.604492 202.846007 
L 168.726253 202.759004 
L 168.969777 202.549706 
L 169.517704 202.857246 
L 169.882989 202.633816 
L 170.552679 202.686422 
L 170.796202 202.961763 
L 171.283249 202.579875 
L 171.465891 202.548957 
L 172.013819 202.8945 
L 172.500866 202.716447 
L 172.80527 202.404461 
L 173.048793 202.488103 
L 173.170555 202.500862 
L 173.474959 202.981564 
L 173.657602 202.996898 
L 174.26641 202.515531 
L 174.814338 202.76854 
L 174.99698 202.839425 
L 175.179623 202.770361 
L 175.362265 202.623784 
L 176.214597 202.749426 
L 176.39724 202.786648 
L 176.701644 202.561702 
L 177.249571 202.878345 
L 177.553976 202.619942 
L 178.162784 202.670624 
L 178.58895 202.863144 
L 178.893354 202.598905 
L 179.015116 202.605728 
L 179.197758 202.498286 
L 179.623924 202.74493 
L 180.110971 202.864418 
L 180.293614 202.65219 
L 180.537137 202.397494 
L 181.267707 202.804078 
L 181.45035 202.834427 
L 181.572111 202.851479 
L 182.120039 202.413159 
L 182.424443 202.73835 
L 182.607086 202.992658 
L 183.581179 202.591495 
L 183.885584 202.735197 
L 184.068226 202.823707 
L 184.250869 202.820008 
L 184.555273 202.598176 
L 185.04232 202.678707 
L 185.285843 202.611347 
L 185.468485 202.740965 
L 185.590247 202.765544 
L 185.894651 202.588003 
L 186.442579 202.822287 
L 186.746983 202.647887 
L 186.990507 202.549289 
L 187.660196 202.811227 
L 187.903719 202.789265 
L 188.025481 202.715541 
L 188.329885 202.429392 
L 188.573409 202.570258 
L 188.999574 203.007975 
L 189.730145 202.455912 
L 189.912787 202.547228 
L 190.460715 202.941464 
L 190.886881 202.672607 
L 191.130404 202.51427 
L 191.373927 202.526748 
L 191.55657 202.509798 
L 191.921855 202.915405 
L 192.043617 203.018758 
L 192.530663 202.628808 
L 192.713306 202.694305 
L 193.139472 202.612375 
L 193.261234 202.681472 
L 193.443876 202.732312 
L 193.74828 202.648389 
L 194.113565 202.908287 
L 194.965897 202.560718 
L 195.14854 202.627587 
L 195.574706 227.16261 
L 196.061752 257.181078 
L 196.122633 256.053718 
L 196.427038 249.52144 
L 196.60968 248.802032 
L 196.731442 248.990774 
L 197.157608 249.919368 
L 197.462012 249.964568 
L 198.679629 249.87737 
L 200.140769 249.851356 
L 203.550096 249.845606 
L 203.854501 273.665781 
L 203.976262 293.251796 
L 203.976642 433 
L 203.976642 433 
" style="fill:none;stroke:#000000;stroke-linecap:square;stroke-width:2;"/>
   </g>
   <g id="patch_3">
    <path d="M 81 384.48 
L 81 51.84 
" style="fill:none;stroke:#000000;stroke-linecap:square;stroke-linejoin:miter;stroke-width:0.8;"/>
   </g>
   <g id="patch_4">
    <path d="M 583.2 384.48 
L 583.2 51.84 
" style="fill:none;stroke:#000000;stroke-linecap:square;stroke-linejoin:miter;stroke-width:0.8;"/>
   </g>
   <g id="patch_5">
    <path d="M 81 384.48 
L 583.2 384.48 
" style="fill:none;stroke:#000000;stroke-linecap:square;stroke-linejoin:miter;stroke-width:0.8;"/>
   </g>
   <g id="patch_6">
    <path d="M 81 51.84 
L 583.2 51.84 
" style="fill:none;stroke:#000000;stroke-linecap:square;stroke-linejoin:miter;stroke-width:0.8;"/>
   </g>
   <g id="legend_1">
    <g id="patch_7">
     <path d="M 443.71875 149.50875 
L 574.8 149.50875 
Q 577.2 149.50875 577.2 147.10875 
L 577.2 60.24 
Q 577.2 57.84 574.8 57.84 
L 443.71875 57.84 
Q 441.31875 57.84 441.31875 60.24 
L 441.31875 147.10875 
Q 441.31875 149.50875 443.71875 149.50875 
z
" style="fill:#ffffff;opacity:0.8;stroke:#cccccc;stroke-linejoin:miter;"/>
    </g>
    <g id="line2d_21">
     <path d="M 446.11875 67.558125 
L 470.11875 67.558125 
" style="fill:none;stroke:#008000;stroke-linecap:square;stroke-width:2;"/>
    </g>
    <g id="line2d_22"/>
    <g id="text_18">
     <!-- SGD Primal -->
     <g transform="translate(479.71875 71.758125)scale(0.12 -0.12)">
      <defs>
       <path d="M 53.515625 70.515625 
L 53.515625 60.890625 
Q 47.90625 63.578125 42.921875 64.890625 
Q 37.9375 66.21875 33.296875 66.21875 
Q 25.25 66.21875 20.875 63.09375 
Q 16.5 59.96875 16.5 54.203125 
Q 16.5 49.359375 19.40625 46.890625 
Q 22.3125 44.4375 30.421875 42.921875 
L 36.375 41.703125 
Q 47.40625 39.59375 52.65625 34.296875 
Q 57.90625 29 57.90625 20.125 
Q 57.90625 9.515625 50.796875 4.046875 
Q 43.703125 -1.421875 29.984375 -1.421875 
Q 24.8125 -1.421875 18.96875 -0.25 
Q 13.140625 0.921875 6.890625 3.21875 
L 6.890625 13.375 
Q 12.890625 10.015625 18.65625 8.296875 
Q 24.421875 6.59375 29.984375 6.59375 
Q 38.421875 6.59375 43.015625 9.90625 
Q 47.609375 13.234375 47.609375 19.390625 
Q 47.609375 24.75 44.3125 27.78125 
Q 41.015625 30.8125 33.5 32.328125 
L 27.484375 33.5 
Q 16.453125 35.6875 11.515625 40.375 
Q 6.59375 45.0625 6.59375 53.421875 
Q 6.59375 63.09375 13.40625 68.65625 
Q 20.21875 74.21875 32.171875 74.21875 
Q 37.3125 74.21875 42.625 73.28125 
Q 47.953125 72.359375 53.515625 70.515625 
z
" id="DejaVuSans-83"/>
       <path d="M 59.515625 10.40625 
L 59.515625 29.984375 
L 43.40625 29.984375 
L 43.40625 38.09375 
L 69.28125 38.09375 
L 69.28125 6.78125 
Q 63.578125 2.734375 56.6875 0.65625 
Q 49.8125 -1.421875 42 -1.421875 
Q 24.90625 -1.421875 15.25 8.5625 
Q 5.609375 18.5625 5.609375 36.375 
Q 5.609375 54.25 15.25 64.234375 
Q 24.90625 74.21875 42 74.21875 
Q 49.125 74.21875 55.546875 72.453125 
Q 61.96875 70.703125 67.390625 67.28125 
L 67.390625 56.78125 
Q 61.921875 61.421875 55.765625 63.765625 
Q 49.609375 66.109375 42.828125 66.109375 
Q 29.4375 66.109375 22.71875 58.640625 
Q 16.015625 51.171875 16.015625 36.375 
Q 16.015625 21.625 22.71875 14.15625 
Q 29.4375 6.6875 42.828125 6.6875 
Q 48.046875 6.6875 52.140625 7.59375 
Q 56.25 8.5 59.515625 10.40625 
z
" id="DejaVuSans-71"/>
       <path d="M 19.671875 64.796875 
L 19.671875 8.109375 
L 31.59375 8.109375 
Q 46.6875 8.109375 53.6875 14.9375 
Q 60.6875 21.78125 60.6875 36.53125 
Q 60.6875 51.171875 53.6875 57.984375 
Q 46.6875 64.796875 31.59375 64.796875 
z
M 9.8125 72.90625 
L 30.078125 72.90625 
Q 51.265625 72.90625 61.171875 64.09375 
Q 71.09375 55.28125 71.09375 36.53125 
Q 71.09375 17.671875 61.125 8.828125 
Q 51.171875 0 30.078125 0 
L 9.8125 0 
z
" id="DejaVuSans-68"/>
       <path id="DejaVuSans-32"/>
       <path d="M 19.671875 64.796875 
L 19.671875 37.40625 
L 32.078125 37.40625 
Q 38.96875 37.40625 42.71875 40.96875 
Q 46.484375 44.53125 46.484375 51.125 
Q 46.484375 57.671875 42.71875 61.234375 
Q 38.96875 64.796875 32.078125 64.796875 
z
M 9.8125 72.90625 
L 32.078125 72.90625 
Q 44.34375 72.90625 50.609375 67.359375 
Q 56.890625 61.8125 56.890625 51.125 
Q 56.890625 40.328125 50.609375 34.8125 
Q 44.34375 29.296875 32.078125 29.296875 
L 19.671875 29.296875 
L 19.671875 0 
L 9.8125 0 
z
" id="DejaVuSans-80"/>
       <path d="M 52 44.1875 
Q 55.375 50.25 60.0625 53.125 
Q 64.75 56 71.09375 56 
Q 79.640625 56 84.28125 50.015625 
Q 88.921875 44.046875 88.921875 33.015625 
L 88.921875 0 
L 79.890625 0 
L 79.890625 32.71875 
Q 79.890625 40.578125 77.09375 44.375 
Q 74.3125 48.1875 68.609375 48.1875 
Q 61.625 48.1875 57.5625 43.546875 
Q 53.515625 38.921875 53.515625 30.90625 
L 53.515625 0 
L 44.484375 0 
L 44.484375 32.71875 
Q 44.484375 40.625 41.703125 44.40625 
Q 38.921875 48.1875 33.109375 48.1875 
Q 26.21875 48.1875 22.15625 43.53125 
Q 18.109375 38.875 18.109375 30.90625 
L 18.109375 0 
L 9.078125 0 
L 9.078125 54.6875 
L 18.109375 54.6875 
L 18.109375 46.1875 
Q 21.1875 51.21875 25.484375 53.609375 
Q 29.78125 56 35.6875 56 
Q 41.65625 56 45.828125 52.96875 
Q 50 49.953125 52 44.1875 
z
" id="DejaVuSans-109"/>
       <path d="M 9.421875 75.984375 
L 18.40625 75.984375 
L 18.40625 0 
L 9.421875 0 
z
" id="DejaVuSans-108"/>
      </defs>
      <use xlink:href="#DejaVuSans-83"/>
      <use x="63.476562" xlink:href="#DejaVuSans-71"/>
      <use x="140.966797" xlink:href="#DejaVuSans-68"/>
      <use x="217.96875" xlink:href="#DejaVuSans-32"/>
      <use x="249.755859" xlink:href="#DejaVuSans-80"/>
      <use x="308.308594" xlink:href="#DejaVuSans-114"/>
      <use x="349.421875" xlink:href="#DejaVuSans-105"/>
      <use x="377.205078" xlink:href="#DejaVuSans-109"/>
      <use x="474.617188" xlink:href="#DejaVuSans-97"/>
      <use x="535.896484" xlink:href="#DejaVuSans-108"/>
     </g>
    </g>
    <g id="line2d_23">
     <path d="M 446.11875 85.171875 
L 470.11875 85.171875 
" style="fill:none;stroke:#0000ff;stroke-linecap:square;stroke-width:2;"/>
    </g>
    <g id="line2d_24"/>
    <g id="text_19">
     <!-- GD Primal -->
     <g transform="translate(479.71875 89.371875)scale(0.12 -0.12)">
      <use xlink:href="#DejaVuSans-71"/>
      <use x="77.490234" xlink:href="#DejaVuSans-68"/>
      <use x="154.492188" xlink:href="#DejaVuSans-32"/>
      <use x="186.279297" xlink:href="#DejaVuSans-80"/>
      <use x="244.832031" xlink:href="#DejaVuSans-114"/>
      <use x="285.945312" xlink:href="#DejaVuSans-105"/>
      <use x="313.728516" xlink:href="#DejaVuSans-109"/>
      <use x="411.140625" xlink:href="#DejaVuSans-97"/>
      <use x="472.419922" xlink:href="#DejaVuSans-108"/>
     </g>
    </g>
    <g id="line2d_25">
     <path d="M 446.11875 102.785625 
L 470.11875 102.785625 
" style="fill:none;stroke:#bfbf00;stroke-linecap:square;stroke-width:2;"/>
    </g>
    <g id="line2d_26"/>
    <g id="text_20">
     <!-- FGD Primal -->
     <g transform="translate(479.71875 106.985625)scale(0.12 -0.12)">
      <defs>
       <path d="M 9.8125 72.90625 
L 51.703125 72.90625 
L 51.703125 64.59375 
L 19.671875 64.59375 
L 19.671875 43.109375 
L 48.578125 43.109375 
L 48.578125 34.8125 
L 19.671875 34.8125 
L 19.671875 0 
L 9.8125 0 
z
" id="DejaVuSans-70"/>
      </defs>
      <use xlink:href="#DejaVuSans-70"/>
      <use x="57.519531" xlink:href="#DejaVuSans-71"/>
      <use x="135.009766" xlink:href="#DejaVuSans-68"/>
      <use x="212.011719" xlink:href="#DejaVuSans-32"/>
      <use x="243.798828" xlink:href="#DejaVuSans-80"/>
      <use x="302.351562" xlink:href="#DejaVuSans-114"/>
      <use x="343.464844" xlink:href="#DejaVuSans-105"/>
      <use x="371.248047" xlink:href="#DejaVuSans-109"/>
      <use x="468.660156" xlink:href="#DejaVuSans-97"/>
      <use x="529.939453" xlink:href="#DejaVuSans-108"/>
     </g>
    </g>
    <g id="line2d_27">
     <path d="M 446.11875 120.399375 
L 470.11875 120.399375 
" style="fill:none;stroke:#ff0000;stroke-linecap:square;stroke-width:2;"/>
    </g>
    <g id="line2d_28"/>
    <g id="text_21">
     <!-- ProxGD Primal -->
     <g transform="translate(479.71875 124.599375)scale(0.12 -0.12)">
      <defs>
       <path d="M 54.890625 54.6875 
L 35.109375 28.078125 
L 55.90625 0 
L 45.3125 0 
L 29.390625 21.484375 
L 13.484375 0 
L 2.875 0 
L 24.125 28.609375 
L 4.6875 54.6875 
L 15.28125 54.6875 
L 29.78125 35.203125 
L 44.28125 54.6875 
z
" id="DejaVuSans-120"/>
      </defs>
      <use xlink:href="#DejaVuSans-80"/>
      <use x="58.552734" xlink:href="#DejaVuSans-114"/>
      <use x="97.416016" xlink:href="#DejaVuSans-111"/>
      <use x="155.472656" xlink:href="#DejaVuSans-120"/>
      <use x="214.652344" xlink:href="#DejaVuSans-71"/>
      <use x="292.142578" xlink:href="#DejaVuSans-68"/>
      <use x="369.144531" xlink:href="#DejaVuSans-32"/>
      <use x="400.931641" xlink:href="#DejaVuSans-80"/>
      <use x="459.484375" xlink:href="#DejaVuSans-114"/>
      <use x="500.597656" xlink:href="#DejaVuSans-105"/>
      <use x="528.380859" xlink:href="#DejaVuSans-109"/>
      <use x="625.792969" xlink:href="#DejaVuSans-97"/>
      <use x="687.072266" xlink:href="#DejaVuSans-108"/>
     </g>
    </g>
    <g id="line2d_29">
     <path d="M 446.11875 138.013125 
L 470.11875 138.013125 
" style="fill:none;stroke:#000000;stroke-linecap:square;stroke-width:2;"/>
    </g>
    <g id="line2d_30"/>
    <g id="text_22">
     <!-- FProxGD Primal -->
     <g transform="translate(479.71875 142.213125)scale(0.12 -0.12)">
      <use xlink:href="#DejaVuSans-70"/>
      <use x="57.519531" xlink:href="#DejaVuSans-80"/>
      <use x="116.072266" xlink:href="#DejaVuSans-114"/>
      <use x="154.935547" xlink:href="#DejaVuSans-111"/>
      <use x="212.992188" xlink:href="#DejaVuSans-120"/>
      <use x="272.171875" xlink:href="#DejaVuSans-71"/>
      <use x="349.662109" xlink:href="#DejaVuSans-68"/>
      <use x="426.664062" xlink:href="#DejaVuSans-32"/>
      <use x="458.451172" xlink:href="#DejaVuSans-80"/>
      <use x="517.003906" xlink:href="#DejaVuSans-114"/>
      <use x="558.117188" xlink:href="#DejaVuSans-105"/>
      <use x="585.900391" xlink:href="#DejaVuSans-109"/>
      <use x="683.3125" xlink:href="#DejaVuSans-97"/>
      <use x="744.591797" xlink:href="#DejaVuSans-108"/>
     </g>
    </g>
   </g>
  </g>
 </g>
 <defs>
  <clipPath id="p3f732deddb">
   <rect height="332.64" width="502.2" x="81" y="51.84"/>
  </clipPath>
 </defs>
</svg>
